%TF.GenerationSoftware,KiCad,Pcbnew,8.0.6*%
%TF.CreationDate,2024-12-30T21:59:01+07:00*%
%TF.ProjectId,Robot_PCB,526f626f-745f-4504-9342-2e6b69636164,rev?*%
%TF.SameCoordinates,Original*%
%TF.FileFunction,Copper,L1,Top*%
%TF.FilePolarity,Positive*%
%FSLAX46Y46*%
G04 Gerber Fmt 4.6, Leading zero omitted, Abs format (unit mm)*
G04 Created by KiCad (PCBNEW 8.0.6) date 2024-12-30 21:59:01*
%MOMM*%
%LPD*%
G01*
G04 APERTURE LIST*
G04 Aperture macros list*
%AMRoundRect*
0 Rectangle with rounded corners*
0 $1 Rounding radius*
0 $2 $3 $4 $5 $6 $7 $8 $9 X,Y pos of 4 corners*
0 Add a 4 corners polygon primitive as box body*
4,1,4,$2,$3,$4,$5,$6,$7,$8,$9,$2,$3,0*
0 Add four circle primitives for the rounded corners*
1,1,$1+$1,$2,$3*
1,1,$1+$1,$4,$5*
1,1,$1+$1,$6,$7*
1,1,$1+$1,$8,$9*
0 Add four rect primitives between the rounded corners*
20,1,$1+$1,$2,$3,$4,$5,0*
20,1,$1+$1,$4,$5,$6,$7,0*
20,1,$1+$1,$6,$7,$8,$9,0*
20,1,$1+$1,$8,$9,$2,$3,0*%
G04 Aperture macros list end*
%ADD10C,0.250000*%
%TA.AperFunction,NonConductor*%
%ADD11C,0.250000*%
%TD*%
%TA.AperFunction,Conductor*%
%ADD12C,0.200000*%
%TD*%
%TA.AperFunction,ComponentPad*%
%ADD13RoundRect,0.250000X0.350000X0.625000X-0.350000X0.625000X-0.350000X-0.625000X0.350000X-0.625000X0*%
%TD*%
%TA.AperFunction,ComponentPad*%
%ADD14O,1.200000X1.750000*%
%TD*%
%TA.AperFunction,ComponentPad*%
%ADD15O,1.750000X1.200000*%
%TD*%
%TA.AperFunction,ComponentPad*%
%ADD16RoundRect,0.250000X0.625000X-0.350000X0.625000X0.350000X-0.625000X0.350000X-0.625000X-0.350000X0*%
%TD*%
%TA.AperFunction,ComponentPad*%
%ADD17RoundRect,0.250000X-0.350000X-0.625000X0.350000X-0.625000X0.350000X0.625000X-0.350000X0.625000X0*%
%TD*%
%TA.AperFunction,ComponentPad*%
%ADD18RoundRect,0.250000X-0.625000X0.350000X-0.625000X-0.350000X0.625000X-0.350000X0.625000X0.350000X0*%
%TD*%
%TA.AperFunction,ComponentPad*%
%ADD19R,1.600000X1.600000*%
%TD*%
%TA.AperFunction,ComponentPad*%
%ADD20O,1.600000X1.600000*%
%TD*%
%TA.AperFunction,Conductor*%
%ADD21C,0.500000*%
%TD*%
G04 APERTURE END LIST*
D10*
D11*
X237741941Y-85149812D02*
X239041941Y-84840288D01*
X239041941Y-84840288D02*
X238113370Y-84592669D01*
X238113370Y-84592669D02*
X239041941Y-84345050D01*
X239041941Y-84345050D02*
X237741941Y-84035527D01*
X238918132Y-82797432D02*
X238980037Y-82859336D01*
X238980037Y-82859336D02*
X239041941Y-83045051D01*
X239041941Y-83045051D02*
X239041941Y-83168860D01*
X239041941Y-83168860D02*
X238980037Y-83354574D01*
X238980037Y-83354574D02*
X238856227Y-83478384D01*
X238856227Y-83478384D02*
X238732417Y-83540289D01*
X238732417Y-83540289D02*
X238484798Y-83602193D01*
X238484798Y-83602193D02*
X238299084Y-83602193D01*
X238299084Y-83602193D02*
X238051465Y-83540289D01*
X238051465Y-83540289D02*
X237927656Y-83478384D01*
X237927656Y-83478384D02*
X237803846Y-83354574D01*
X237803846Y-83354574D02*
X237741941Y-83168860D01*
X237741941Y-83168860D02*
X237741941Y-83045051D01*
X237741941Y-83045051D02*
X237803846Y-82859336D01*
X237803846Y-82859336D02*
X237865751Y-82797432D01*
X239041941Y-81497432D02*
X238422894Y-81930765D01*
X239041941Y-82240289D02*
X237741941Y-82240289D01*
X237741941Y-82240289D02*
X237741941Y-81745051D01*
X237741941Y-81745051D02*
X237803846Y-81621241D01*
X237803846Y-81621241D02*
X237865751Y-81559336D01*
X237865751Y-81559336D02*
X237989560Y-81497432D01*
X237989560Y-81497432D02*
X238175275Y-81497432D01*
X238175275Y-81497432D02*
X238299084Y-81559336D01*
X238299084Y-81559336D02*
X238360989Y-81621241D01*
X238360989Y-81621241D02*
X238422894Y-81745051D01*
X238422894Y-81745051D02*
X238422894Y-82240289D01*
X237741941Y-80135527D02*
X239041941Y-79702194D01*
X239041941Y-79702194D02*
X237741941Y-79268860D01*
X238918132Y-78835527D02*
X238980037Y-78773622D01*
X238980037Y-78773622D02*
X239041941Y-78835527D01*
X239041941Y-78835527D02*
X238980037Y-78897431D01*
X238980037Y-78897431D02*
X238918132Y-78835527D01*
X238918132Y-78835527D02*
X239041941Y-78835527D01*
X239041941Y-77535526D02*
X239041941Y-78278383D01*
X239041941Y-77906955D02*
X237741941Y-77906955D01*
X237741941Y-77906955D02*
X237927656Y-78030764D01*
X237927656Y-78030764D02*
X238051465Y-78154574D01*
X238051465Y-78154574D02*
X238113370Y-78278383D01*
X241134868Y-85026003D02*
X239834868Y-85026003D01*
X239834868Y-85026003D02*
X239834868Y-84716479D01*
X239834868Y-84716479D02*
X239896773Y-84530765D01*
X239896773Y-84530765D02*
X240020583Y-84406955D01*
X240020583Y-84406955D02*
X240144392Y-84345050D01*
X240144392Y-84345050D02*
X240392011Y-84283146D01*
X240392011Y-84283146D02*
X240577725Y-84283146D01*
X240577725Y-84283146D02*
X240825344Y-84345050D01*
X240825344Y-84345050D02*
X240949154Y-84406955D01*
X240949154Y-84406955D02*
X241072964Y-84530765D01*
X241072964Y-84530765D02*
X241134868Y-84716479D01*
X241134868Y-84716479D02*
X241134868Y-85026003D01*
X241072964Y-83230765D02*
X241134868Y-83354574D01*
X241134868Y-83354574D02*
X241134868Y-83602193D01*
X241134868Y-83602193D02*
X241072964Y-83726003D01*
X241072964Y-83726003D02*
X240949154Y-83787907D01*
X240949154Y-83787907D02*
X240453916Y-83787907D01*
X240453916Y-83787907D02*
X240330106Y-83726003D01*
X240330106Y-83726003D02*
X240268202Y-83602193D01*
X240268202Y-83602193D02*
X240268202Y-83354574D01*
X240268202Y-83354574D02*
X240330106Y-83230765D01*
X240330106Y-83230765D02*
X240453916Y-83168860D01*
X240453916Y-83168860D02*
X240577725Y-83168860D01*
X240577725Y-83168860D02*
X240701535Y-83787907D01*
X241072964Y-82673621D02*
X241134868Y-82549812D01*
X241134868Y-82549812D02*
X241134868Y-82302193D01*
X241134868Y-82302193D02*
X241072964Y-82178383D01*
X241072964Y-82178383D02*
X240949154Y-82116479D01*
X240949154Y-82116479D02*
X240887249Y-82116479D01*
X240887249Y-82116479D02*
X240763440Y-82178383D01*
X240763440Y-82178383D02*
X240701535Y-82302193D01*
X240701535Y-82302193D02*
X240701535Y-82487907D01*
X240701535Y-82487907D02*
X240639630Y-82611717D01*
X240639630Y-82611717D02*
X240515821Y-82673621D01*
X240515821Y-82673621D02*
X240453916Y-82673621D01*
X240453916Y-82673621D02*
X240330106Y-82611717D01*
X240330106Y-82611717D02*
X240268202Y-82487907D01*
X240268202Y-82487907D02*
X240268202Y-82302193D01*
X240268202Y-82302193D02*
X240330106Y-82178383D01*
X241134868Y-81559336D02*
X240268202Y-81559336D01*
X239834868Y-81559336D02*
X239896773Y-81621240D01*
X239896773Y-81621240D02*
X239958678Y-81559336D01*
X239958678Y-81559336D02*
X239896773Y-81497431D01*
X239896773Y-81497431D02*
X239834868Y-81559336D01*
X239834868Y-81559336D02*
X239958678Y-81559336D01*
X240268202Y-80383145D02*
X241320583Y-80383145D01*
X241320583Y-80383145D02*
X241444392Y-80445050D01*
X241444392Y-80445050D02*
X241506297Y-80506954D01*
X241506297Y-80506954D02*
X241568202Y-80630764D01*
X241568202Y-80630764D02*
X241568202Y-80816478D01*
X241568202Y-80816478D02*
X241506297Y-80940288D01*
X241072964Y-80383145D02*
X241134868Y-80506954D01*
X241134868Y-80506954D02*
X241134868Y-80754573D01*
X241134868Y-80754573D02*
X241072964Y-80878383D01*
X241072964Y-80878383D02*
X241011059Y-80940288D01*
X241011059Y-80940288D02*
X240887249Y-81002192D01*
X240887249Y-81002192D02*
X240515821Y-81002192D01*
X240515821Y-81002192D02*
X240392011Y-80940288D01*
X240392011Y-80940288D02*
X240330106Y-80878383D01*
X240330106Y-80878383D02*
X240268202Y-80754573D01*
X240268202Y-80754573D02*
X240268202Y-80506954D01*
X240268202Y-80506954D02*
X240330106Y-80383145D01*
X240268202Y-79764098D02*
X241134868Y-79764098D01*
X240392011Y-79764098D02*
X240330106Y-79702193D01*
X240330106Y-79702193D02*
X240268202Y-79578383D01*
X240268202Y-79578383D02*
X240268202Y-79392669D01*
X240268202Y-79392669D02*
X240330106Y-79268860D01*
X240330106Y-79268860D02*
X240453916Y-79206955D01*
X240453916Y-79206955D02*
X241134868Y-79206955D01*
X241072964Y-78092670D02*
X241134868Y-78216479D01*
X241134868Y-78216479D02*
X241134868Y-78464098D01*
X241134868Y-78464098D02*
X241072964Y-78587908D01*
X241072964Y-78587908D02*
X240949154Y-78649812D01*
X240949154Y-78649812D02*
X240453916Y-78649812D01*
X240453916Y-78649812D02*
X240330106Y-78587908D01*
X240330106Y-78587908D02*
X240268202Y-78464098D01*
X240268202Y-78464098D02*
X240268202Y-78216479D01*
X240268202Y-78216479D02*
X240330106Y-78092670D01*
X240330106Y-78092670D02*
X240453916Y-78030765D01*
X240453916Y-78030765D02*
X240577725Y-78030765D01*
X240577725Y-78030765D02*
X240701535Y-78649812D01*
X241134868Y-76916479D02*
X239834868Y-76916479D01*
X241072964Y-76916479D02*
X241134868Y-77040288D01*
X241134868Y-77040288D02*
X241134868Y-77287907D01*
X241134868Y-77287907D02*
X241072964Y-77411717D01*
X241072964Y-77411717D02*
X241011059Y-77473622D01*
X241011059Y-77473622D02*
X240887249Y-77535526D01*
X240887249Y-77535526D02*
X240515821Y-77535526D01*
X240515821Y-77535526D02*
X240392011Y-77473622D01*
X240392011Y-77473622D02*
X240330106Y-77411717D01*
X240330106Y-77411717D02*
X240268202Y-77287907D01*
X240268202Y-77287907D02*
X240268202Y-77040288D01*
X240268202Y-77040288D02*
X240330106Y-76916479D01*
X241134868Y-75306956D02*
X239834868Y-75306956D01*
X240330106Y-75306956D02*
X240268202Y-75183146D01*
X240268202Y-75183146D02*
X240268202Y-74935527D01*
X240268202Y-74935527D02*
X240330106Y-74811718D01*
X240330106Y-74811718D02*
X240392011Y-74749813D01*
X240392011Y-74749813D02*
X240515821Y-74687908D01*
X240515821Y-74687908D02*
X240887249Y-74687908D01*
X240887249Y-74687908D02*
X241011059Y-74749813D01*
X241011059Y-74749813D02*
X241072964Y-74811718D01*
X241072964Y-74811718D02*
X241134868Y-74935527D01*
X241134868Y-74935527D02*
X241134868Y-75183146D01*
X241134868Y-75183146D02*
X241072964Y-75306956D01*
X240268202Y-74254575D02*
X241134868Y-73945051D01*
X240268202Y-73635528D02*
X241134868Y-73945051D01*
X241134868Y-73945051D02*
X241444392Y-74068861D01*
X241444392Y-74068861D02*
X241506297Y-74130766D01*
X241506297Y-74130766D02*
X241568202Y-74254575D01*
X241011059Y-73140290D02*
X241072964Y-73078385D01*
X241072964Y-73078385D02*
X241134868Y-73140290D01*
X241134868Y-73140290D02*
X241072964Y-73202194D01*
X241072964Y-73202194D02*
X241011059Y-73140290D01*
X241011059Y-73140290D02*
X241134868Y-73140290D01*
X240330106Y-73140290D02*
X240392011Y-73078385D01*
X240392011Y-73078385D02*
X240453916Y-73140290D01*
X240453916Y-73140290D02*
X240392011Y-73202194D01*
X240392011Y-73202194D02*
X240330106Y-73140290D01*
X240330106Y-73140290D02*
X240453916Y-73140290D01*
X240763440Y-71592670D02*
X240763440Y-70973623D01*
X241134868Y-71716480D02*
X239834868Y-71283147D01*
X239834868Y-71283147D02*
X241134868Y-70849813D01*
X241134868Y-70416480D02*
X240268202Y-70416480D01*
X240515821Y-70416480D02*
X240392011Y-70354575D01*
X240392011Y-70354575D02*
X240330106Y-70292670D01*
X240330106Y-70292670D02*
X240268202Y-70168861D01*
X240268202Y-70168861D02*
X240268202Y-70045051D01*
X241134868Y-69611718D02*
X240268202Y-69611718D01*
X239834868Y-69611718D02*
X239896773Y-69673622D01*
X239896773Y-69673622D02*
X239958678Y-69611718D01*
X239958678Y-69611718D02*
X239896773Y-69549813D01*
X239896773Y-69549813D02*
X239834868Y-69611718D01*
X239834868Y-69611718D02*
X239958678Y-69611718D01*
X241134868Y-68002194D02*
X239834868Y-68002194D01*
X240453916Y-68002194D02*
X240453916Y-67259337D01*
X241134868Y-67259337D02*
X239834868Y-67259337D01*
X241134868Y-66083146D02*
X240453916Y-66083146D01*
X240453916Y-66083146D02*
X240330106Y-66145051D01*
X240330106Y-66145051D02*
X240268202Y-66268860D01*
X240268202Y-66268860D02*
X240268202Y-66516479D01*
X240268202Y-66516479D02*
X240330106Y-66640289D01*
X241072964Y-66083146D02*
X241134868Y-66206955D01*
X241134868Y-66206955D02*
X241134868Y-66516479D01*
X241134868Y-66516479D02*
X241072964Y-66640289D01*
X241072964Y-66640289D02*
X240949154Y-66702193D01*
X240949154Y-66702193D02*
X240825344Y-66702193D01*
X240825344Y-66702193D02*
X240701535Y-66640289D01*
X240701535Y-66640289D02*
X240639630Y-66516479D01*
X240639630Y-66516479D02*
X240639630Y-66206955D01*
X240639630Y-66206955D02*
X240577725Y-66083146D01*
X241134868Y-65464099D02*
X240268202Y-65464099D01*
X240515821Y-65464099D02*
X240392011Y-65402194D01*
X240392011Y-65402194D02*
X240330106Y-65340289D01*
X240330106Y-65340289D02*
X240268202Y-65216480D01*
X240268202Y-65216480D02*
X240268202Y-65092670D01*
X240268202Y-64845051D02*
X240268202Y-64349813D01*
X239834868Y-64659337D02*
X240949154Y-64659337D01*
X240949154Y-64659337D02*
X241072964Y-64597432D01*
X241072964Y-64597432D02*
X241134868Y-64473622D01*
X241134868Y-64473622D02*
X241134868Y-64349813D01*
X241134868Y-63359337D02*
X240453916Y-63359337D01*
X240453916Y-63359337D02*
X240330106Y-63421242D01*
X240330106Y-63421242D02*
X240268202Y-63545051D01*
X240268202Y-63545051D02*
X240268202Y-63792670D01*
X240268202Y-63792670D02*
X240330106Y-63916480D01*
X241072964Y-63359337D02*
X241134868Y-63483146D01*
X241134868Y-63483146D02*
X241134868Y-63792670D01*
X241134868Y-63792670D02*
X241072964Y-63916480D01*
X241072964Y-63916480D02*
X240949154Y-63978384D01*
X240949154Y-63978384D02*
X240825344Y-63978384D01*
X240825344Y-63978384D02*
X240701535Y-63916480D01*
X240701535Y-63916480D02*
X240639630Y-63792670D01*
X240639630Y-63792670D02*
X240639630Y-63483146D01*
X240639630Y-63483146D02*
X240577725Y-63359337D01*
X240268202Y-62864099D02*
X241134868Y-62616480D01*
X241134868Y-62616480D02*
X240515821Y-62368861D01*
X240515821Y-62368861D02*
X241134868Y-62121242D01*
X241134868Y-62121242D02*
X240268202Y-61873623D01*
X241134868Y-60821242D02*
X240453916Y-60821242D01*
X240453916Y-60821242D02*
X240330106Y-60883147D01*
X240330106Y-60883147D02*
X240268202Y-61006956D01*
X240268202Y-61006956D02*
X240268202Y-61254575D01*
X240268202Y-61254575D02*
X240330106Y-61378385D01*
X241072964Y-60821242D02*
X241134868Y-60945051D01*
X241134868Y-60945051D02*
X241134868Y-61254575D01*
X241134868Y-61254575D02*
X241072964Y-61378385D01*
X241072964Y-61378385D02*
X240949154Y-61440289D01*
X240949154Y-61440289D02*
X240825344Y-61440289D01*
X240825344Y-61440289D02*
X240701535Y-61378385D01*
X240701535Y-61378385D02*
X240639630Y-61254575D01*
X240639630Y-61254575D02*
X240639630Y-60945051D01*
X240639630Y-60945051D02*
X240577725Y-60821242D01*
X240268202Y-60202195D02*
X241134868Y-60202195D01*
X240392011Y-60202195D02*
X240330106Y-60140290D01*
X240330106Y-60140290D02*
X240268202Y-60016480D01*
X240268202Y-60016480D02*
X240268202Y-59830766D01*
X240268202Y-59830766D02*
X240330106Y-59706957D01*
X240330106Y-59706957D02*
X240453916Y-59645052D01*
X240453916Y-59645052D02*
X241134868Y-59645052D01*
%TO.N,GND*%
D12*
X209500000Y-43500000D02*
X249500000Y-43500000D01*
X249500000Y-106000000D01*
X209500000Y-106000000D01*
X209500000Y-43500000D01*
%TD*%
D13*
%TO.P,J8,1,Pin_1*%
%TO.N,12V*%
X233000000Y-47500000D03*
D14*
%TO.P,J8,2,Pin_2*%
%TO.N,GND*%
X231000000Y-47500000D03*
%TD*%
D15*
%TO.P,J7,2,Pin_2*%
%TO.N,R Motor -*%
X213500000Y-72000000D03*
D16*
%TO.P,J7,1,Pin_1*%
%TO.N,R Motor +*%
X213500000Y-74000000D03*
%TD*%
D15*
%TO.P,J3,6,Pin_6*%
%TO.N,R Motor +*%
X222000000Y-68000000D03*
%TO.P,J3,5,Pin_5*%
%TO.N,5V*%
X222000000Y-70000000D03*
%TO.P,J3,4,Pin_4*%
%TO.N,R Encoder B Phase*%
X222000000Y-72000000D03*
%TO.P,J3,3,Pin_3*%
%TO.N,R Encoder A Phase*%
X222000000Y-74000000D03*
%TO.P,J3,2,Pin_2*%
%TO.N,GND*%
X222000000Y-76000000D03*
D16*
%TO.P,J3,1,Pin_1*%
%TO.N,R Motor -*%
X222000000Y-78000000D03*
%TD*%
D15*
%TO.P,J6,2,Pin_2*%
%TO.N,L Motor -*%
X213500000Y-54000000D03*
D16*
%TO.P,J6,1,Pin_1*%
%TO.N,L Motor +*%
X213500000Y-56000000D03*
%TD*%
D14*
%TO.P,J5,3,Pin_3*%
%TO.N,5V*%
X243500000Y-46500000D03*
%TO.P,J5,2,Pin_2*%
%TO.N,GND*%
X241500000Y-46500000D03*
D17*
%TO.P,J5,1,Pin_1*%
%TO.N,12V*%
X239500000Y-46500000D03*
%TD*%
D14*
%TO.P,J4,8,Pin_8*%
%TO.N,IRQ*%
X214000000Y-100000000D03*
%TO.P,J4,7,Pin_7*%
%TO.N,SCK*%
X216000000Y-100000000D03*
%TO.P,J4,6,Pin_6*%
%TO.N,MISO*%
X218000000Y-100000000D03*
%TO.P,J4,5,Pin_5*%
%TO.N,MOSI*%
X220000000Y-100000000D03*
%TO.P,J4,4,Pin_4*%
%TO.N,CNS*%
X222000000Y-100000000D03*
%TO.P,J4,3,Pin_3*%
%TO.N,CE*%
X224000000Y-100000000D03*
%TO.P,J4,2,Pin_2*%
%TO.N,GND*%
X226000000Y-100000000D03*
D13*
%TO.P,J4,1,Pin_1*%
%TO.N,3V3*%
X228000000Y-100000000D03*
%TD*%
D15*
%TO.P,J2,6,Pin_6*%
%TO.N,L Motor +*%
X223000000Y-60000000D03*
%TO.P,J2,5,Pin_5*%
%TO.N,5V*%
X223000000Y-58000000D03*
%TO.P,J2,4,Pin_4*%
%TO.N,L Encoder B Phase*%
X223000000Y-56000000D03*
%TO.P,J2,3,Pin_3*%
%TO.N,L Encoder A Phase*%
X223000000Y-54000000D03*
%TO.P,J2,2,Pin_2*%
%TO.N,GND*%
X223000000Y-52000000D03*
D18*
%TO.P,J2,1,Pin_1*%
%TO.N,L Motor -*%
X223000000Y-50000000D03*
%TD*%
D15*
%TO.P,J1,6,Pin_6*%
%TO.N,IN4*%
X215000000Y-93500000D03*
%TO.P,J1,5,Pin_5*%
%TO.N,IN3*%
X215000000Y-91500000D03*
%TO.P,J1,4,Pin_4*%
%TO.N,IN2*%
X215000000Y-89500000D03*
%TO.P,J1,3,Pin_3*%
%TO.N,IN1*%
X215000000Y-87500000D03*
%TO.P,J1,2,Pin_2*%
%TO.N,ENB*%
X215000000Y-85500000D03*
D18*
%TO.P,J1,1,Pin_1*%
%TO.N,ENA*%
X215000000Y-83500000D03*
%TD*%
D19*
%TO.P,A1,1,D1/TX*%
%TO.N,unconnected-(A1-D1{slash}TX-Pad1)*%
X229260000Y-54500000D03*
D20*
%TO.P,A1,2,D0/RX*%
%TO.N,unconnected-(A1-D0{slash}RX-Pad2)*%
X229260000Y-57040000D03*
%TO.P,A1,3,~{RESET}*%
%TO.N,unconnected-(A1-~{RESET}-Pad3)*%
X229260000Y-59580000D03*
%TO.P,A1,4,GND*%
%TO.N,GND*%
X229260000Y-62120000D03*
%TO.P,A1,5,D2*%
%TO.N,L Encoder A Phase*%
X229260000Y-64660000D03*
%TO.P,A1,6,D3*%
%TO.N,R Encoder A Phase*%
X229260000Y-67200000D03*
%TO.P,A1,7,D4*%
%TO.N,unconnected-(A1-D4-Pad7)*%
X229260000Y-69740000D03*
%TO.P,A1,8,D5*%
%TO.N,ENA*%
X229260000Y-72280000D03*
%TO.P,A1,9,D6*%
%TO.N,ENB*%
X229260000Y-74820000D03*
%TO.P,A1,10,D7*%
%TO.N,IN1*%
X229260000Y-77360000D03*
%TO.P,A1,11,D8*%
%TO.N,IN2*%
X229260000Y-79900000D03*
%TO.P,A1,12,D9*%
%TO.N,CE*%
X229260000Y-82440000D03*
%TO.P,A1,13,D10*%
%TO.N,CNS*%
X229260000Y-84980000D03*
%TO.P,A1,14,D11*%
%TO.N,MOSI*%
X229260000Y-87520000D03*
%TO.P,A1,15,D12*%
%TO.N,MISO*%
X229260000Y-90060000D03*
%TO.P,A1,16,D13*%
%TO.N,SCK*%
X244500000Y-90060000D03*
%TO.P,A1,17,3V3*%
%TO.N,3V3*%
X244500000Y-87520000D03*
%TO.P,A1,18,AREF*%
%TO.N,unconnected-(A1-AREF-Pad18)*%
X244500000Y-84980000D03*
%TO.P,A1,19,A0*%
%TO.N,IN4*%
X244500000Y-82440000D03*
%TO.P,A1,20,A1*%
%TO.N,IN3*%
X244500000Y-79900000D03*
%TO.P,A1,21,A2*%
%TO.N,unconnected-(A1-A2-Pad21)*%
X244500000Y-77360000D03*
%TO.P,A1,22,A3*%
%TO.N,unconnected-(A1-A3-Pad22)*%
X244500000Y-74820000D03*
%TO.P,A1,23,A4*%
%TO.N,unconnected-(A1-A4-Pad23)*%
X244500000Y-72280000D03*
%TO.P,A1,24,A5*%
%TO.N,unconnected-(A1-A5-Pad24)*%
X244500000Y-69740000D03*
%TO.P,A1,25,A6*%
%TO.N,unconnected-(A1-A6-Pad25)*%
X244500000Y-67200000D03*
%TO.P,A1,26,A7*%
%TO.N,unconnected-(A1-A7-Pad26)*%
X244500000Y-64660000D03*
%TO.P,A1,27,+5V*%
%TO.N,unconnected-(A1-+5V-Pad27)*%
X244500000Y-62120000D03*
%TO.P,A1,28,~{RESET}*%
%TO.N,unconnected-(A1-~{RESET}-Pad28)*%
X244500000Y-59580000D03*
%TO.P,A1,29,GND*%
%TO.N,GND*%
X244500000Y-57040000D03*
%TO.P,A1,30,VIN*%
%TO.N,12V*%
X244500000Y-54500000D03*
%TD*%
D21*
%TO.N,GND*%
X234500000Y-61240000D02*
X233620000Y-62120000D01*
X234500000Y-57500000D02*
X234500000Y-61240000D01*
X234960000Y-57040000D02*
X234500000Y-57500000D01*
X244500000Y-57040000D02*
X234960000Y-57040000D01*
%TO.N,12V*%
X234000000Y-46500000D02*
X239500000Y-46500000D01*
X233000000Y-47500000D02*
X234000000Y-46500000D01*
%TO.N,GND*%
X226000000Y-48000000D02*
X226000000Y-51500000D01*
X226000000Y-51500000D02*
X225500000Y-52000000D01*
X226500000Y-47500000D02*
X226000000Y-48000000D01*
X231000000Y-47500000D02*
X226500000Y-47500000D01*
%TO.N,5V*%
X242500000Y-44500000D02*
X242875000Y-44875000D01*
X219000000Y-44500000D02*
X242500000Y-44500000D01*
X243500000Y-45000000D02*
X243500000Y-46500000D01*
X211875000Y-58375000D02*
X211875000Y-51625000D01*
X243375000Y-44875000D02*
X243500000Y-45000000D01*
X216000000Y-62500000D02*
X211875000Y-58375000D01*
X224500000Y-62500000D02*
X216000000Y-62500000D01*
X242875000Y-44875000D02*
X243375000Y-44875000D01*
X211875000Y-51625000D02*
X219000000Y-44500000D01*
%TO.N,GND*%
X226000000Y-98500000D02*
X226000000Y-100000000D01*
X246500000Y-57580000D02*
X245960000Y-57040000D01*
X248050002Y-82383756D02*
X246500000Y-80833754D01*
X240500000Y-94000000D02*
X245000001Y-94000001D01*
X248050002Y-91778426D02*
X248050002Y-82383756D01*
X240000002Y-94499998D02*
X240500000Y-94000000D01*
X245000001Y-94000001D02*
X245828427Y-94000001D01*
X212796575Y-104625003D02*
X233031853Y-104625003D01*
X240000003Y-97656853D02*
X240000002Y-96828426D01*
X210499999Y-102328427D02*
X212796575Y-104625003D01*
X233031853Y-104625003D02*
X240000003Y-97656853D01*
X210499999Y-93000001D02*
X210499999Y-102328427D01*
X245828427Y-94000001D02*
X248050002Y-91778426D01*
X213000000Y-90500000D02*
X210499999Y-93000001D01*
X213000000Y-83103858D02*
X213000000Y-90500000D01*
X240000002Y-96828426D02*
X240000002Y-94499998D01*
X213953858Y-82150000D02*
X213000000Y-83103858D01*
X221150000Y-82150000D02*
X213953858Y-82150000D01*
X246500000Y-80833754D02*
X246500000Y-57580000D01*
X221500000Y-82500000D02*
X221150000Y-82150000D01*
X222000000Y-82500000D02*
X221500000Y-82500000D01*
X222500000Y-82000000D02*
X222000000Y-82500000D01*
X222500000Y-79896142D02*
X222500000Y-82000000D01*
X223625000Y-78771142D02*
X222500000Y-79896142D01*
X223625000Y-77125000D02*
X223625000Y-78771142D01*
X222500000Y-76000000D02*
X223625000Y-77125000D01*
X222000000Y-76000000D02*
X222500000Y-76000000D01*
%TO.N,IN3*%
X213500000Y-91500000D02*
X215000000Y-91500000D01*
X211500000Y-101914214D02*
X211500000Y-93500000D01*
X213210788Y-103625002D02*
X211500000Y-101914214D01*
X232617640Y-103625002D02*
X213210788Y-103625002D01*
X211500000Y-93500000D02*
X213500000Y-91500000D01*
X239000002Y-97242640D02*
X232617640Y-103625002D01*
X239000002Y-94000002D02*
X239000002Y-97242640D01*
X239000000Y-94000000D02*
X239000002Y-94000002D01*
X240000000Y-93000000D02*
X239000000Y-94000000D01*
X247050001Y-91364213D02*
X245414214Y-93000000D01*
X247050001Y-82797969D02*
X247050001Y-91364213D01*
X245414214Y-93000000D02*
X240000000Y-93000000D01*
X243510000Y-80890000D02*
X245142032Y-80890000D01*
X244500000Y-79900000D02*
X243510000Y-80890000D01*
X245142032Y-80890000D02*
X247050001Y-82797969D01*
%TO.N,IN4*%
X212500000Y-101500000D02*
X212500000Y-94000000D01*
X213625001Y-102625001D02*
X212500000Y-101500000D01*
X212500000Y-94000000D02*
X213000000Y-93500000D01*
X232203427Y-102625001D02*
X213625001Y-102625001D01*
X238000001Y-96828427D02*
X232203427Y-102625001D01*
X238000001Y-96000001D02*
X238000001Y-96828427D01*
X246050000Y-90950000D02*
X245000000Y-92000000D01*
X238000000Y-93500000D02*
X238000001Y-96000001D01*
X246050000Y-84050000D02*
X246050000Y-90950000D01*
X245500000Y-83500000D02*
X246050000Y-84050000D01*
X245500000Y-83440000D02*
X245500000Y-83500000D01*
X239500000Y-92000000D02*
X238000000Y-93500000D01*
X245000000Y-92000000D02*
X239500000Y-92000000D01*
X244500000Y-82440000D02*
X245500000Y-83440000D01*
X213000000Y-93500000D02*
X215000000Y-93500000D01*
%TO.N,SCK*%
X238940000Y-90060000D02*
X244500000Y-90060000D01*
X237000000Y-92000000D02*
X238940000Y-90060000D01*
X237000000Y-96414214D02*
X237000000Y-92000000D01*
X231789214Y-101625000D02*
X237000000Y-96414214D01*
X217440812Y-101625000D02*
X231789214Y-101625000D01*
X216000000Y-100184188D02*
X217440812Y-101625000D01*
X216000000Y-100000000D02*
X216000000Y-100184188D01*
%TO.N,3V3*%
X237980000Y-87520000D02*
X244500000Y-87520000D01*
X236000000Y-96000000D02*
X236000000Y-89500000D01*
X236000000Y-89500000D02*
X237980000Y-87520000D01*
X229500000Y-98500000D02*
X233500000Y-98500000D01*
X233500000Y-98500000D02*
X236000000Y-96000000D01*
X228000000Y-100000000D02*
X229500000Y-98500000D01*
%TO.N,MISO*%
X218000000Y-92500000D02*
X218000000Y-100000000D01*
%TO.N,MOSI*%
X220000000Y-93000000D02*
X220000000Y-100000000D01*
%TO.N,CNS*%
X222000000Y-94500000D02*
X222000000Y-100000000D01*
%TO.N,CE*%
X224000000Y-96500000D02*
X224000000Y-100000000D01*
%TO.N,GND*%
X233620000Y-62120000D02*
X229260000Y-62120000D01*
X234500000Y-95500000D02*
X234500000Y-63000000D01*
X227000000Y-97500000D02*
X232500000Y-97500000D01*
X226000000Y-98500000D02*
X227000000Y-97500000D01*
X234500000Y-63000000D02*
X233620000Y-62120000D01*
X232500000Y-97500000D02*
X234500000Y-95500000D01*
%TO.N,CE*%
X231440000Y-82440000D02*
X229260000Y-82440000D01*
X233500000Y-84500000D02*
X231440000Y-82440000D01*
X233500000Y-94000000D02*
X233500000Y-84500000D01*
X232000000Y-95500000D02*
X233500000Y-94000000D01*
X224000000Y-96500000D02*
X225000000Y-95500000D01*
X225000000Y-95500000D02*
X232000000Y-95500000D01*
%TO.N,CNS*%
X232500000Y-86000000D02*
X231480000Y-84980000D01*
X232500000Y-93000000D02*
X232500000Y-86000000D01*
X231500000Y-94000000D02*
X232500000Y-93000000D01*
X222500000Y-94000000D02*
X231500000Y-94000000D01*
X222000000Y-94500000D02*
X222500000Y-94000000D01*
X231480000Y-84980000D02*
X229260000Y-84980000D01*
%TO.N,MOSI*%
X231020000Y-87520000D02*
X229260000Y-87520000D01*
X231500000Y-92000000D02*
X231500000Y-88000000D01*
X231500000Y-88000000D02*
X231020000Y-87520000D01*
X220500000Y-92500000D02*
X231000000Y-92500000D01*
X231000000Y-92500000D02*
X231500000Y-92000000D01*
X220000000Y-93000000D02*
X220500000Y-92500000D01*
%TO.N,MISO*%
X219500000Y-91000000D02*
X218000000Y-92500000D01*
X228320000Y-91000000D02*
X219500000Y-91000000D01*
X229260000Y-90060000D02*
X228320000Y-91000000D01*
%TO.N,ENA*%
X227710000Y-73830000D02*
X229260000Y-72280000D01*
X227710000Y-74790000D02*
X227710000Y-73830000D01*
X226709999Y-75790001D02*
X227710000Y-74790000D01*
X226709999Y-75955787D02*
X226709999Y-75790001D01*
X226710000Y-76500000D02*
X226709999Y-75955787D01*
X226710000Y-76790000D02*
X226710000Y-76500000D01*
X225500000Y-78000000D02*
X226710000Y-76790000D01*
X225500000Y-79000000D02*
X225500000Y-78000000D01*
X223500000Y-81000000D02*
X225500000Y-79000000D01*
X223000000Y-83500000D02*
X223500000Y-83000000D01*
X223500000Y-83000000D02*
X223500000Y-81000000D01*
X215000000Y-83500000D02*
X223000000Y-83500000D01*
%TO.N,ENB*%
X227710000Y-76370000D02*
X229260000Y-74820000D01*
X227710000Y-77495786D02*
X227710000Y-76370000D01*
X226499999Y-78705787D02*
X227710000Y-77495786D01*
X226500000Y-79500000D02*
X226499999Y-78705787D01*
X224499999Y-82414213D02*
X224499999Y-81500001D01*
X224499999Y-81500001D02*
X226500000Y-79500000D01*
X224500000Y-85000000D02*
X224499999Y-82414213D01*
X224000000Y-85500000D02*
X224500000Y-85000000D01*
X215000000Y-85500000D02*
X224000000Y-85500000D01*
%TO.N,IN1*%
X225500000Y-82000000D02*
X227500000Y-80000000D01*
X225500000Y-87000000D02*
X225500000Y-82000000D01*
X227500000Y-80000000D02*
X227500000Y-79120000D01*
X225000000Y-87500000D02*
X225500000Y-87000000D01*
X227500000Y-79120000D02*
X229260000Y-77360000D01*
X215000000Y-87500000D02*
X225000000Y-87500000D01*
%TO.N,IN2*%
X227000000Y-82160000D02*
X229260000Y-79900000D01*
X226000000Y-89500000D02*
X227000000Y-88500000D01*
X227000000Y-88500000D02*
X227000000Y-82160000D01*
X215000000Y-89500000D02*
X226000000Y-89500000D01*
%TO.N,R Motor +*%
X215000000Y-68000000D02*
X222000000Y-68000000D01*
X211875000Y-71125000D02*
X215000000Y-68000000D01*
X211875000Y-73375000D02*
X211875000Y-71125000D01*
X212500000Y-74000000D02*
X211875000Y-73375000D01*
X213500000Y-74000000D02*
X212500000Y-74000000D01*
%TO.N,R Motor -*%
X220875000Y-78000000D02*
X222000000Y-78000000D01*
X214875000Y-72000000D02*
X220875000Y-78000000D01*
X213500000Y-72000000D02*
X214875000Y-72000000D01*
%TO.N,R Encoder A Phase*%
X224500000Y-74000000D02*
X222000000Y-74000000D01*
X226500000Y-72000000D02*
X224500000Y-74000000D01*
%TO.N,L Encoder A Phase*%
X224500000Y-54000000D02*
X223000000Y-54000000D01*
X226000000Y-61400000D02*
X226000000Y-55500000D01*
X226000000Y-55500000D02*
X224500000Y-54000000D01*
%TO.N,GND*%
X225500000Y-52000000D02*
X223000000Y-52000000D01*
X227000000Y-53500000D02*
X225500000Y-52000000D01*
X227000000Y-59860000D02*
X227000000Y-53500000D01*
%TO.N,R Encoder A Phase*%
X226500000Y-68500000D02*
X226500000Y-72000000D01*
%TO.N,L Encoder A Phase*%
X229260000Y-64660000D02*
X226000000Y-61400000D01*
%TO.N,R Encoder A Phase*%
X229260000Y-67200000D02*
X227800000Y-67200000D01*
X227800000Y-67200000D02*
X226500000Y-68500000D01*
%TO.N,GND*%
X229260000Y-62120000D02*
X227000000Y-59860000D01*
X241500000Y-51500000D02*
X242500000Y-52500000D01*
%TO.N,12V*%
X242500000Y-54500000D02*
X244500000Y-54500000D01*
%TO.N,GND*%
X245960000Y-57040000D02*
X244500000Y-57040000D01*
X242500000Y-52500000D02*
X246000000Y-52500000D01*
X246500000Y-56500000D02*
X245960000Y-57040000D01*
X246500000Y-53000000D02*
X246500000Y-56500000D01*
X246000000Y-52500000D02*
X246500000Y-53000000D01*
%TO.N,12V*%
X239500000Y-46500000D02*
X239500000Y-51500000D01*
%TO.N,GND*%
X241500000Y-46500000D02*
X241500000Y-51500000D01*
%TO.N,12V*%
X239500000Y-51500000D02*
X242500000Y-54500000D01*
%TO.N,L Motor -*%
X223000000Y-50000000D02*
X217500000Y-50000000D01*
X217500000Y-50000000D02*
X213500000Y-54000000D01*
%TO.N,L Motor +*%
X217500000Y-60000000D02*
X223000000Y-60000000D01*
X213500000Y-56000000D02*
X217500000Y-60000000D01*
%TO.N,5V*%
X223000000Y-58000000D02*
X223825000Y-58000000D01*
X223825000Y-58000000D02*
X225000000Y-59175000D01*
X225000000Y-68500000D02*
X223500000Y-70000000D01*
X223500000Y-70000000D02*
X222000000Y-70000000D01*
X225000000Y-68500000D02*
X225000000Y-63000000D01*
X225000000Y-63000000D02*
X224500000Y-62500000D01*
X225000000Y-59175000D02*
X225000000Y-62000000D01*
X225000000Y-62000000D02*
X224500000Y-62500000D01*
%TD*%
%TA.AperFunction,Conductor*%
%TO.N,GND*%
G36*
X218432782Y-43518954D02*
G01*
X218513564Y-43572930D01*
X218567540Y-43653712D01*
X218586494Y-43749000D01*
X218567540Y-43844288D01*
X218513566Y-43925066D01*
X213021586Y-49417046D01*
X211292047Y-51146585D01*
X211242812Y-51220272D01*
X211209917Y-51269502D01*
X211209915Y-51269507D01*
X211153341Y-51406088D01*
X211124500Y-51551079D01*
X211124500Y-58448920D01*
X211153341Y-58593911D01*
X211153342Y-58593914D01*
X211209912Y-58730487D01*
X211209917Y-58730497D01*
X211223282Y-58750499D01*
X211223284Y-58750502D01*
X211292044Y-58853411D01*
X211292045Y-58853412D01*
X211292048Y-58853416D01*
X215521584Y-63082952D01*
X215535463Y-63092225D01*
X215577096Y-63120044D01*
X215577102Y-63120047D01*
X215610803Y-63142565D01*
X215644503Y-63165083D01*
X215644505Y-63165084D01*
X215781087Y-63221658D01*
X215926080Y-63250499D01*
X215926081Y-63250500D01*
X215926082Y-63250500D01*
X215926083Y-63250500D01*
X216073917Y-63250500D01*
X224000500Y-63250500D01*
X224095788Y-63269454D01*
X224176570Y-63323430D01*
X224230546Y-63404212D01*
X224249500Y-63499500D01*
X224249500Y-68085992D01*
X224230546Y-68181280D01*
X224176570Y-68262062D01*
X224176569Y-68262062D01*
X223657201Y-68781429D01*
X223576420Y-68835405D01*
X223481132Y-68854359D01*
X223385844Y-68835405D01*
X223305062Y-68781428D01*
X223251086Y-68700647D01*
X223232132Y-68605359D01*
X223251086Y-68510071D01*
X223259259Y-68492340D01*
X223294873Y-68422445D01*
X223348402Y-68257701D01*
X223375500Y-68086611D01*
X223375500Y-67913389D01*
X223348402Y-67742299D01*
X223294873Y-67577555D01*
X223216232Y-67423212D01*
X223216230Y-67423209D01*
X223216229Y-67423207D01*
X223114418Y-67283077D01*
X223114416Y-67283075D01*
X223114414Y-67283072D01*
X222991928Y-67160586D01*
X222991924Y-67160583D01*
X222991922Y-67160581D01*
X222851792Y-67058770D01*
X222697443Y-66980126D01*
X222697437Y-66980124D01*
X222603195Y-66949503D01*
X222532701Y-66926598D01*
X222532699Y-66926597D01*
X222532697Y-66926597D01*
X222361621Y-66899501D01*
X222361614Y-66899500D01*
X222361611Y-66899500D01*
X221638389Y-66899500D01*
X221638386Y-66899500D01*
X221638378Y-66899501D01*
X221467302Y-66926597D01*
X221302562Y-66980124D01*
X221302556Y-66980126D01*
X221148207Y-67058770D01*
X221008077Y-67160581D01*
X221008072Y-67160585D01*
X221008072Y-67160586D01*
X220992085Y-67176572D01*
X220911307Y-67230546D01*
X220816019Y-67249500D01*
X214926079Y-67249500D01*
X214781088Y-67278341D01*
X214644507Y-67334915D01*
X214644503Y-67334917D01*
X214521587Y-67417046D01*
X211292046Y-70646586D01*
X211269693Y-70680042D01*
X211269691Y-70680045D01*
X211209917Y-70769503D01*
X211209915Y-70769507D01*
X211153341Y-70906088D01*
X211124500Y-71051079D01*
X211124500Y-73448920D01*
X211153341Y-73593911D01*
X211153342Y-73593913D01*
X211209916Y-73730495D01*
X211242813Y-73779729D01*
X211292048Y-73853416D01*
X211292051Y-73853420D01*
X211917047Y-74478414D01*
X211917049Y-74478416D01*
X211917048Y-74478416D01*
X211990695Y-74552062D01*
X212021584Y-74582951D01*
X212144505Y-74665084D01*
X212144510Y-74665086D01*
X212149469Y-74667737D01*
X212153822Y-74671309D01*
X212154676Y-74671880D01*
X212154619Y-74671964D01*
X212224572Y-74729371D01*
X212244022Y-74756618D01*
X212282285Y-74818652D01*
X212282292Y-74818661D01*
X212368697Y-74905065D01*
X212406344Y-74942712D01*
X212555666Y-75034814D01*
X212555669Y-75034815D01*
X212555667Y-75034815D01*
X212719310Y-75089040D01*
X212722203Y-75089999D01*
X212824991Y-75100500D01*
X214175008Y-75100499D01*
X214277797Y-75089999D01*
X214444334Y-75034814D01*
X214593656Y-74942712D01*
X214717712Y-74818656D01*
X214809814Y-74669334D01*
X214864999Y-74502797D01*
X214875500Y-74400009D01*
X214875499Y-73663004D01*
X214894453Y-73567717D01*
X214948429Y-73486936D01*
X215029211Y-73432959D01*
X215124499Y-73414005D01*
X215219787Y-73432959D01*
X215300568Y-73486935D01*
X220396584Y-78582951D01*
X220519505Y-78665084D01*
X220656087Y-78721658D01*
X220667388Y-78726339D01*
X220666258Y-78729066D01*
X220733240Y-78764868D01*
X220771523Y-78808678D01*
X220773293Y-78807280D01*
X220782284Y-78818651D01*
X220782286Y-78818653D01*
X220782288Y-78818656D01*
X220906344Y-78942712D01*
X221055666Y-79034814D01*
X221055669Y-79034815D01*
X221055667Y-79034815D01*
X221219310Y-79089040D01*
X221222203Y-79089999D01*
X221324991Y-79100500D01*
X222675008Y-79100499D01*
X222777797Y-79089999D01*
X222944334Y-79034814D01*
X223093656Y-78942712D01*
X223217712Y-78818656D01*
X223309814Y-78669334D01*
X223364999Y-78502797D01*
X223375500Y-78400009D01*
X223375499Y-77599992D01*
X223364999Y-77497203D01*
X223309814Y-77330666D01*
X223217712Y-77181344D01*
X223109567Y-77073199D01*
X223055594Y-76992421D01*
X223036640Y-76897133D01*
X223055594Y-76801845D01*
X223109570Y-76721063D01*
X223109586Y-76721048D01*
X223114031Y-76716602D01*
X223215804Y-76576523D01*
X223215808Y-76576516D01*
X223294407Y-76422258D01*
X223294411Y-76422248D01*
X223347914Y-76257584D01*
X223349115Y-76250000D01*
X222280330Y-76250000D01*
X222300075Y-76230255D01*
X222349444Y-76144745D01*
X222375000Y-76049370D01*
X222375000Y-75950630D01*
X222349444Y-75855255D01*
X222300075Y-75769745D01*
X222280330Y-75750000D01*
X223349115Y-75750000D01*
X223347914Y-75742415D01*
X223294411Y-75577751D01*
X223294407Y-75577741D01*
X223215808Y-75423483D01*
X223215804Y-75423476D01*
X223114031Y-75283396D01*
X223007058Y-75176423D01*
X222953082Y-75095641D01*
X222934128Y-75000353D01*
X222953082Y-74905065D01*
X223007055Y-74824286D01*
X223007914Y-74823427D01*
X223088693Y-74769454D01*
X223183981Y-74750500D01*
X224573919Y-74750500D01*
X224573919Y-74750499D01*
X224718913Y-74721658D01*
X224805039Y-74685983D01*
X224855491Y-74665086D01*
X224855492Y-74665085D01*
X224855495Y-74665084D01*
X224904729Y-74632186D01*
X224978416Y-74582952D01*
X227082951Y-72478416D01*
X227165084Y-72355495D01*
X227221658Y-72218913D01*
X227250500Y-72073918D01*
X227250500Y-68914007D01*
X227269454Y-68818719D01*
X227323430Y-68737937D01*
X227965021Y-68096346D01*
X228045803Y-68042370D01*
X228141091Y-68023416D01*
X228236379Y-68042370D01*
X228317157Y-68096343D01*
X228420861Y-68200047D01*
X228420864Y-68200049D01*
X228420865Y-68200050D01*
X228515096Y-68266031D01*
X228582280Y-68336212D01*
X228617493Y-68426761D01*
X228615374Y-68523893D01*
X228576245Y-68612820D01*
X228515096Y-68673969D01*
X228420865Y-68739949D01*
X228259949Y-68900865D01*
X228129436Y-69087258D01*
X228129428Y-69087272D01*
X228033262Y-69293500D01*
X228033261Y-69293503D01*
X227974365Y-69513305D01*
X227974363Y-69513320D01*
X227954532Y-69739994D01*
X227954532Y-69740005D01*
X227974363Y-69966679D01*
X227974365Y-69966694D01*
X228033261Y-70186496D01*
X228033262Y-70186499D01*
X228129428Y-70392727D01*
X228129436Y-70392741D01*
X228259949Y-70579134D01*
X228259953Y-70579139D01*
X228420861Y-70740047D01*
X228420864Y-70740049D01*
X228420865Y-70740050D01*
X228515096Y-70806031D01*
X228582280Y-70876212D01*
X228617493Y-70966761D01*
X228615374Y-71063893D01*
X228576245Y-71152820D01*
X228515096Y-71213969D01*
X228420865Y-71279949D01*
X228259949Y-71440865D01*
X228129436Y-71627258D01*
X228129428Y-71627272D01*
X228033262Y-71833500D01*
X228033261Y-71833503D01*
X227974365Y-72053305D01*
X227974363Y-72053320D01*
X227954532Y-72279994D01*
X227954532Y-72279996D01*
X227954532Y-72280000D01*
X227961137Y-72355495D01*
X227964050Y-72388795D01*
X227953472Y-72485372D01*
X227906741Y-72570550D01*
X227892067Y-72586564D01*
X227127048Y-73351583D01*
X227111220Y-73375271D01*
X227087637Y-73410568D01*
X227044919Y-73474500D01*
X227044913Y-73474510D01*
X226988341Y-73611088D01*
X226959500Y-73756079D01*
X226959500Y-74375992D01*
X226940546Y-74471280D01*
X226886570Y-74552062D01*
X226127048Y-75311583D01*
X226077811Y-75385273D01*
X226044916Y-75434503D01*
X226044914Y-75434508D01*
X225988340Y-75571089D01*
X225959499Y-75716080D01*
X225959499Y-76375992D01*
X225940545Y-76471280D01*
X225886569Y-76552061D01*
X224917047Y-77521584D01*
X224884900Y-77569699D01*
X224884897Y-77569703D01*
X224834917Y-77644503D01*
X224834915Y-77644507D01*
X224778341Y-77781088D01*
X224749500Y-77926079D01*
X224749500Y-78585992D01*
X224730546Y-78681280D01*
X224676570Y-78762062D01*
X222917045Y-80521587D01*
X222896238Y-80552730D01*
X222896235Y-80552734D01*
X222834919Y-80644500D01*
X222834913Y-80644510D01*
X222778341Y-80781088D01*
X222749500Y-80926079D01*
X222749500Y-82500500D01*
X222730546Y-82595788D01*
X222676570Y-82676570D01*
X222595788Y-82730546D01*
X222500500Y-82749500D01*
X216389008Y-82749500D01*
X216293720Y-82730546D01*
X216212939Y-82676570D01*
X216093656Y-82557288D01*
X216001587Y-82500500D01*
X215944334Y-82465186D01*
X215944332Y-82465185D01*
X215944330Y-82465184D01*
X215944332Y-82465184D01*
X215777802Y-82410002D01*
X215777798Y-82410001D01*
X215777797Y-82410001D01*
X215675009Y-82399500D01*
X215675005Y-82399500D01*
X214324993Y-82399500D01*
X214222199Y-82410001D01*
X214055667Y-82465185D01*
X213906346Y-82557286D01*
X213906344Y-82557287D01*
X213906344Y-82557288D01*
X213782288Y-82681344D01*
X213755946Y-82724051D01*
X213690184Y-82830668D01*
X213635002Y-82997197D01*
X213635001Y-82997204D01*
X213624500Y-83099988D01*
X213624500Y-83900006D01*
X213635001Y-84002800D01*
X213688778Y-84165086D01*
X213690186Y-84169334D01*
X213727353Y-84229591D01*
X213763818Y-84288712D01*
X213782288Y-84318656D01*
X213890078Y-84426446D01*
X213944052Y-84507225D01*
X213963006Y-84602513D01*
X213944052Y-84697801D01*
X213890078Y-84778579D01*
X213885586Y-84783072D01*
X213885581Y-84783077D01*
X213783770Y-84923207D01*
X213705126Y-85077556D01*
X213705124Y-85077562D01*
X213651597Y-85242302D01*
X213624501Y-85413378D01*
X213624500Y-85413393D01*
X213624500Y-85586606D01*
X213624501Y-85586621D01*
X213651597Y-85757697D01*
X213651598Y-85757701D01*
X213659691Y-85782608D01*
X213705124Y-85922437D01*
X213705126Y-85922443D01*
X213783770Y-86076792D01*
X213885581Y-86216922D01*
X213885583Y-86216924D01*
X213885586Y-86216928D01*
X213992591Y-86323933D01*
X214046565Y-86404712D01*
X214065519Y-86500000D01*
X214046565Y-86595288D01*
X213992591Y-86676066D01*
X213938112Y-86730546D01*
X213885581Y-86783077D01*
X213783770Y-86923207D01*
X213705126Y-87077556D01*
X213705124Y-87077562D01*
X213651597Y-87242302D01*
X213624501Y-87413378D01*
X213624500Y-87413393D01*
X213624500Y-87586606D01*
X213624501Y-87586621D01*
X213651597Y-87757697D01*
X213705124Y-87922437D01*
X213705126Y-87922443D01*
X213783770Y-88076792D01*
X213885581Y-88216922D01*
X213885583Y-88216924D01*
X213885586Y-88216928D01*
X213992591Y-88323933D01*
X214046565Y-88404712D01*
X214065519Y-88500000D01*
X214046565Y-88595288D01*
X213992591Y-88676066D01*
X213938112Y-88730546D01*
X213885581Y-88783077D01*
X213783770Y-88923207D01*
X213705127Y-89077555D01*
X213651597Y-89242302D01*
X213624501Y-89413378D01*
X213624500Y-89413393D01*
X213624500Y-89586606D01*
X213624501Y-89586621D01*
X213651597Y-89757697D01*
X213705124Y-89922437D01*
X213705126Y-89922443D01*
X213783770Y-90076792D01*
X213885581Y-90216922D01*
X213885583Y-90216924D01*
X213885586Y-90216928D01*
X213992590Y-90323932D01*
X214046564Y-90404711D01*
X214065518Y-90499999D01*
X214046564Y-90595287D01*
X213992939Y-90675716D01*
X213992440Y-90676217D01*
X213911767Y-90730355D01*
X213816517Y-90749500D01*
X213426079Y-90749500D01*
X213281088Y-90778341D01*
X213144507Y-90834915D01*
X213144503Y-90834917D01*
X213068356Y-90885797D01*
X213021587Y-90917046D01*
X210917048Y-93021583D01*
X210879650Y-93077555D01*
X210834916Y-93144504D01*
X210778341Y-93281088D01*
X210749500Y-93426079D01*
X210749500Y-101988134D01*
X210778341Y-102133125D01*
X210778342Y-102133127D01*
X210834916Y-102269709D01*
X210867813Y-102318943D01*
X210917048Y-102392630D01*
X212627837Y-104103418D01*
X212627836Y-104103418D01*
X212732370Y-104207951D01*
X212732372Y-104207953D01*
X212855293Y-104290086D01*
X212911868Y-104313520D01*
X212911870Y-104313521D01*
X212991872Y-104346660D01*
X212991874Y-104346660D01*
X212991876Y-104346661D01*
X213030593Y-104354362D01*
X213108025Y-104369765D01*
X213108033Y-104369765D01*
X213136868Y-104375501D01*
X213136869Y-104375502D01*
X213136870Y-104375502D01*
X232691559Y-104375502D01*
X232691559Y-104375501D01*
X232836553Y-104346660D01*
X232922679Y-104310985D01*
X232973131Y-104290088D01*
X232973132Y-104290087D01*
X232973135Y-104290086D01*
X233022369Y-104257188D01*
X233096056Y-104207954D01*
X239582954Y-97721056D01*
X239632188Y-97647369D01*
X239665086Y-97598135D01*
X239721660Y-97461553D01*
X239750502Y-97316558D01*
X239750502Y-94414005D01*
X239769456Y-94318717D01*
X239823432Y-94237935D01*
X240237937Y-93823430D01*
X240318719Y-93769454D01*
X240414007Y-93750500D01*
X245488133Y-93750500D01*
X245488133Y-93750499D01*
X245633127Y-93721658D01*
X245744396Y-93675569D01*
X245769705Y-93665086D01*
X245769706Y-93665085D01*
X245769709Y-93665084D01*
X245818943Y-93632186D01*
X245892630Y-93582952D01*
X247632952Y-91842629D01*
X247715085Y-91719708D01*
X247771659Y-91583126D01*
X247800501Y-91438131D01*
X247800501Y-91290296D01*
X247800501Y-82724051D01*
X247792006Y-82681344D01*
X247771660Y-82579057D01*
X247762642Y-82557286D01*
X247733997Y-82488130D01*
X247733997Y-82488129D01*
X247715086Y-82442476D01*
X247715083Y-82442471D01*
X247686371Y-82399500D01*
X247632952Y-82319553D01*
X247632950Y-82319551D01*
X247528417Y-82215017D01*
X247528417Y-82215018D01*
X245814266Y-80500866D01*
X245760290Y-80420084D01*
X245741336Y-80324796D01*
X245749820Y-80260355D01*
X245785635Y-80126692D01*
X245805468Y-79900000D01*
X245805468Y-79899996D01*
X245805468Y-79899994D01*
X245785636Y-79673320D01*
X245785635Y-79673308D01*
X245726739Y-79453504D01*
X245630568Y-79247266D01*
X245630565Y-79247262D01*
X245630563Y-79247258D01*
X245500050Y-79060865D01*
X245500049Y-79060864D01*
X245500047Y-79060861D01*
X245339139Y-78899953D01*
X245339133Y-78899949D01*
X245310561Y-78879942D01*
X245244902Y-78833968D01*
X245177719Y-78763789D01*
X245142506Y-78673240D01*
X245144625Y-78576108D01*
X245183753Y-78487181D01*
X245244902Y-78426031D01*
X245339139Y-78360047D01*
X245500047Y-78199139D01*
X245630568Y-78012734D01*
X245726739Y-77806496D01*
X245785635Y-77586692D01*
X245805468Y-77360000D01*
X245805468Y-77359994D01*
X245785636Y-77133320D01*
X245785635Y-77133308D01*
X245726739Y-76913504D01*
X245636995Y-76721048D01*
X245630571Y-76707272D01*
X245630563Y-76707258D01*
X245500050Y-76520865D01*
X245500049Y-76520864D01*
X245500047Y-76520861D01*
X245339139Y-76359953D01*
X245339133Y-76359949D01*
X245267892Y-76310066D01*
X245244902Y-76293968D01*
X245177719Y-76223789D01*
X245142506Y-76133240D01*
X245144625Y-76036108D01*
X245183753Y-75947181D01*
X245244902Y-75886031D01*
X245339139Y-75820047D01*
X245500047Y-75659139D01*
X245630568Y-75472734D01*
X245726739Y-75266496D01*
X245785635Y-75046692D01*
X245798026Y-74905065D01*
X245805468Y-74820005D01*
X245805468Y-74819994D01*
X245785636Y-74593320D01*
X245785635Y-74593308D01*
X245726739Y-74373504D01*
X245630568Y-74167266D01*
X245630565Y-74167262D01*
X245630563Y-74167258D01*
X245500050Y-73980865D01*
X245500049Y-73980864D01*
X245500047Y-73980861D01*
X245339139Y-73819953D01*
X245339133Y-73819949D01*
X245310561Y-73799942D01*
X245244902Y-73753968D01*
X245177719Y-73683789D01*
X245142506Y-73593240D01*
X245144625Y-73496108D01*
X245183753Y-73407181D01*
X245244902Y-73346031D01*
X245339139Y-73280047D01*
X245500047Y-73119139D01*
X245630568Y-72932734D01*
X245726739Y-72726496D01*
X245785635Y-72506692D01*
X245798863Y-72355495D01*
X245805468Y-72280005D01*
X245805468Y-72279994D01*
X245785636Y-72053320D01*
X245785635Y-72053308D01*
X245726739Y-71833504D01*
X245630568Y-71627266D01*
X245630565Y-71627262D01*
X245630563Y-71627258D01*
X245500050Y-71440865D01*
X245500049Y-71440864D01*
X245500047Y-71440861D01*
X245339139Y-71279953D01*
X245339133Y-71279949D01*
X245295647Y-71249500D01*
X245244902Y-71213968D01*
X245177719Y-71143789D01*
X245142506Y-71053240D01*
X245144625Y-70956108D01*
X245183753Y-70867181D01*
X245244902Y-70806031D01*
X245339139Y-70740047D01*
X245500047Y-70579139D01*
X245630568Y-70392734D01*
X245726739Y-70186496D01*
X245785635Y-69966692D01*
X245805468Y-69740000D01*
X245805468Y-69739994D01*
X245785636Y-69513320D01*
X245785635Y-69513308D01*
X245726739Y-69293504D01*
X245630568Y-69087266D01*
X245630565Y-69087262D01*
X245630563Y-69087258D01*
X245500050Y-68900865D01*
X245500049Y-68900864D01*
X245500047Y-68900861D01*
X245339139Y-68739953D01*
X245339133Y-68739949D01*
X245306256Y-68716928D01*
X245244902Y-68673968D01*
X245177719Y-68603789D01*
X245142506Y-68513240D01*
X245144625Y-68416108D01*
X245183753Y-68327181D01*
X245244902Y-68266031D01*
X245339139Y-68200047D01*
X245500047Y-68039139D01*
X245630568Y-67852734D01*
X245726739Y-67646496D01*
X245785635Y-67426692D01*
X245793664Y-67334916D01*
X245805468Y-67200005D01*
X245805468Y-67199994D01*
X245785636Y-66973320D01*
X245785635Y-66973308D01*
X245726739Y-66753504D01*
X245630568Y-66547266D01*
X245630565Y-66547262D01*
X245630563Y-66547258D01*
X245500050Y-66360865D01*
X245500049Y-66360864D01*
X245500047Y-66360861D01*
X245339139Y-66199953D01*
X245339133Y-66199949D01*
X245310561Y-66179942D01*
X245244902Y-66133968D01*
X245177719Y-66063789D01*
X245142506Y-65973240D01*
X245144625Y-65876108D01*
X245183753Y-65787181D01*
X245244902Y-65726031D01*
X245339139Y-65660047D01*
X245500047Y-65499139D01*
X245630568Y-65312734D01*
X245726739Y-65106496D01*
X245785635Y-64886692D01*
X245805468Y-64660000D01*
X245805468Y-64659994D01*
X245785636Y-64433320D01*
X245785635Y-64433308D01*
X245726739Y-64213504D01*
X245630568Y-64007266D01*
X245630565Y-64007262D01*
X245630563Y-64007258D01*
X245500050Y-63820865D01*
X245500049Y-63820864D01*
X245500047Y-63820861D01*
X245339139Y-63659953D01*
X245339133Y-63659949D01*
X245310561Y-63639942D01*
X245244902Y-63593968D01*
X245177719Y-63523789D01*
X245142506Y-63433240D01*
X245144625Y-63336108D01*
X245183753Y-63247181D01*
X245244902Y-63186031D01*
X245339139Y-63120047D01*
X245500047Y-62959139D01*
X245630568Y-62772734D01*
X245726739Y-62566496D01*
X245785635Y-62346692D01*
X245805468Y-62120000D01*
X245805468Y-62119994D01*
X245785636Y-61893320D01*
X245785635Y-61893308D01*
X245726739Y-61673504D01*
X245688270Y-61591008D01*
X245630571Y-61467272D01*
X245630563Y-61467258D01*
X245500050Y-61280865D01*
X245500049Y-61280864D01*
X245500047Y-61280861D01*
X245339139Y-61119953D01*
X245339133Y-61119949D01*
X245310561Y-61099942D01*
X245244902Y-61053968D01*
X245177719Y-60983789D01*
X245142506Y-60893240D01*
X245144625Y-60796108D01*
X245183753Y-60707181D01*
X245244902Y-60646031D01*
X245339139Y-60580047D01*
X245500047Y-60419139D01*
X245630568Y-60232734D01*
X245726739Y-60026496D01*
X245785635Y-59806692D01*
X245805468Y-59580000D01*
X245805468Y-59579994D01*
X245785636Y-59353320D01*
X245785635Y-59353308D01*
X245726739Y-59133504D01*
X245660206Y-58990824D01*
X245630571Y-58927272D01*
X245630563Y-58927258D01*
X245500050Y-58740865D01*
X245500049Y-58740864D01*
X245500047Y-58740861D01*
X245339139Y-58579953D01*
X245339135Y-58579950D01*
X245339134Y-58579949D01*
X245244467Y-58513663D01*
X245177283Y-58443482D01*
X245142070Y-58352933D01*
X245144189Y-58255801D01*
X245183318Y-58166874D01*
X245244468Y-58105724D01*
X245338813Y-58039663D01*
X245499664Y-57878812D01*
X245630133Y-57692483D01*
X245726267Y-57486323D01*
X245778872Y-57290000D01*
X244933012Y-57290000D01*
X244965925Y-57232993D01*
X245000000Y-57105826D01*
X245000000Y-56974174D01*
X244965925Y-56847007D01*
X244933012Y-56790000D01*
X245778872Y-56790000D01*
X245778871Y-56789999D01*
X245726267Y-56593676D01*
X245630133Y-56387516D01*
X245499664Y-56201187D01*
X245338814Y-56040337D01*
X245244466Y-55974274D01*
X245177282Y-55904093D01*
X245142070Y-55813543D01*
X245144189Y-55716411D01*
X245183318Y-55627484D01*
X245244465Y-55566337D01*
X245339139Y-55500047D01*
X245500047Y-55339139D01*
X245630568Y-55152734D01*
X245726739Y-54946496D01*
X245785635Y-54726692D01*
X245805468Y-54500000D01*
X245805468Y-54499994D01*
X245785636Y-54273320D01*
X245785635Y-54273308D01*
X245726739Y-54053504D01*
X245630568Y-53847266D01*
X245630565Y-53847262D01*
X245630563Y-53847258D01*
X245500050Y-53660865D01*
X245500049Y-53660864D01*
X245500047Y-53660861D01*
X245339139Y-53499953D01*
X245339135Y-53499950D01*
X245339134Y-53499949D01*
X245152741Y-53369436D01*
X245152727Y-53369428D01*
X244946499Y-53273262D01*
X244946496Y-53273261D01*
X244726694Y-53214365D01*
X244726679Y-53214363D01*
X244500006Y-53194532D01*
X244499994Y-53194532D01*
X244273320Y-53214363D01*
X244273305Y-53214365D01*
X244053503Y-53273261D01*
X244053500Y-53273262D01*
X243847272Y-53369428D01*
X243847258Y-53369436D01*
X243660865Y-53499949D01*
X243660861Y-53499952D01*
X243660861Y-53499953D01*
X243499953Y-53660861D01*
X243499950Y-53660864D01*
X243492266Y-53668549D01*
X243491367Y-53667650D01*
X243424448Y-53721362D01*
X243331175Y-53748552D01*
X243309466Y-53749500D01*
X242914007Y-53749500D01*
X242818719Y-53730546D01*
X242737937Y-53676570D01*
X240323430Y-51262062D01*
X240269454Y-51181280D01*
X240250500Y-51085992D01*
X240250500Y-47889007D01*
X240269454Y-47793719D01*
X240323427Y-47712940D01*
X240426799Y-47609568D01*
X240507578Y-47555595D01*
X240602866Y-47536641D01*
X240698154Y-47555595D01*
X240778936Y-47609571D01*
X240783396Y-47614031D01*
X240923476Y-47715804D01*
X240923483Y-47715808D01*
X241077741Y-47794407D01*
X241077751Y-47794411D01*
X241242415Y-47847914D01*
X241250000Y-47849115D01*
X241250000Y-46780330D01*
X241269745Y-46800075D01*
X241355255Y-46849444D01*
X241450630Y-46875000D01*
X241549370Y-46875000D01*
X241644745Y-46849444D01*
X241730255Y-46800075D01*
X241750000Y-46780330D01*
X241750000Y-47849115D01*
X241757584Y-47847914D01*
X241922248Y-47794411D01*
X241922258Y-47794407D01*
X242076516Y-47715808D01*
X242076523Y-47715804D01*
X242216603Y-47614031D01*
X242323577Y-47507058D01*
X242404359Y-47453082D01*
X242499647Y-47434128D01*
X242594935Y-47453082D01*
X242675713Y-47507055D01*
X242783072Y-47614414D01*
X242783075Y-47614416D01*
X242783077Y-47614418D01*
X242923207Y-47716229D01*
X242923209Y-47716230D01*
X242923212Y-47716232D01*
X243077555Y-47794873D01*
X243242299Y-47848402D01*
X243413389Y-47875500D01*
X243413393Y-47875500D01*
X243586607Y-47875500D01*
X243586611Y-47875500D01*
X243757701Y-47848402D01*
X243922445Y-47794873D01*
X244076788Y-47716232D01*
X244216928Y-47614414D01*
X244339414Y-47491928D01*
X244441232Y-47351788D01*
X244519873Y-47197445D01*
X244573402Y-47032701D01*
X244600500Y-46861611D01*
X244600500Y-46138389D01*
X244573402Y-45967299D01*
X244519873Y-45802555D01*
X244441232Y-45648212D01*
X244441230Y-45648209D01*
X244441229Y-45648207D01*
X244339417Y-45508076D01*
X244339412Y-45508070D01*
X244323427Y-45492084D01*
X244269452Y-45411301D01*
X244250500Y-45316018D01*
X244250500Y-44926082D01*
X244250499Y-44926079D01*
X244225636Y-44801084D01*
X244225634Y-44801074D01*
X244221659Y-44781090D01*
X244221659Y-44781088D01*
X244188518Y-44701080D01*
X244165084Y-44644505D01*
X244165083Y-44644504D01*
X244165082Y-44644501D01*
X244132186Y-44595270D01*
X244082952Y-44521584D01*
X243853416Y-44292048D01*
X243853412Y-44292045D01*
X243853410Y-44292043D01*
X243853411Y-44292043D01*
X243779732Y-44242815D01*
X243779729Y-44242812D01*
X243779729Y-44242813D01*
X243730495Y-44209916D01*
X243593913Y-44153342D01*
X243593911Y-44153341D01*
X243448920Y-44124500D01*
X243448918Y-44124500D01*
X243289008Y-44124500D01*
X243193720Y-44105546D01*
X243112939Y-44051570D01*
X242986438Y-43925070D01*
X242932461Y-43844289D01*
X242913507Y-43749001D01*
X242932461Y-43653713D01*
X242986437Y-43572931D01*
X243067218Y-43518954D01*
X243162506Y-43500000D01*
X249251000Y-43500000D01*
X249346288Y-43518954D01*
X249427070Y-43572930D01*
X249481046Y-43653712D01*
X249500000Y-43749000D01*
X249500000Y-105751000D01*
X249481046Y-105846288D01*
X249427070Y-105927070D01*
X249346288Y-105981046D01*
X249251000Y-106000000D01*
X209749000Y-106000000D01*
X209653712Y-105981046D01*
X209572930Y-105927070D01*
X209518954Y-105846288D01*
X209500000Y-105751000D01*
X209500000Y-43749000D01*
X209518954Y-43653712D01*
X209572930Y-43572930D01*
X209653712Y-43518954D01*
X209749000Y-43500000D01*
X218337494Y-43500000D01*
X218432782Y-43518954D01*
G37*
%TD.AperFunction*%
%TA.AperFunction,Conductor*%
G36*
X238316771Y-45269454D02*
G01*
X238397553Y-45323430D01*
X238451529Y-45404212D01*
X238470483Y-45499500D01*
X238457799Y-45577957D01*
X238457467Y-45578957D01*
X238409455Y-45663419D01*
X238332774Y-45723079D01*
X238239101Y-45748852D01*
X238221151Y-45749500D01*
X233926074Y-45749500D01*
X233897244Y-45755234D01*
X233897245Y-45755235D01*
X233781090Y-45778340D01*
X233701076Y-45811482D01*
X233644511Y-45834912D01*
X233644505Y-45834915D01*
X233644505Y-45834916D01*
X233562373Y-45889794D01*
X233542047Y-45903375D01*
X233521584Y-45917048D01*
X233387062Y-46051570D01*
X233306280Y-46105546D01*
X233210993Y-46124500D01*
X232599993Y-46124500D01*
X232497199Y-46135001D01*
X232330667Y-46190185D01*
X232181346Y-46282286D01*
X232181344Y-46282287D01*
X232181344Y-46282288D01*
X232073200Y-46390431D01*
X231992422Y-46444405D01*
X231897134Y-46463359D01*
X231801846Y-46444405D01*
X231721064Y-46390429D01*
X231716603Y-46385968D01*
X231576523Y-46284195D01*
X231576516Y-46284191D01*
X231422258Y-46205592D01*
X231422245Y-46205586D01*
X231257587Y-46152087D01*
X231257579Y-46152085D01*
X231250000Y-46150883D01*
X231250000Y-47219670D01*
X231230255Y-47199925D01*
X231144745Y-47150556D01*
X231049370Y-47125000D01*
X230950630Y-47125000D01*
X230855255Y-47150556D01*
X230769745Y-47199925D01*
X230750000Y-47219670D01*
X230750000Y-46150883D01*
X230749999Y-46150883D01*
X230742420Y-46152085D01*
X230742412Y-46152087D01*
X230577754Y-46205586D01*
X230577741Y-46205592D01*
X230423483Y-46284191D01*
X230423476Y-46284195D01*
X230283396Y-46385968D01*
X230160968Y-46508396D01*
X230059195Y-46648476D01*
X230059191Y-46648483D01*
X229980592Y-46802741D01*
X229980586Y-46802754D01*
X229927085Y-46967415D01*
X229927085Y-46967416D01*
X229900000Y-47138418D01*
X229900000Y-47249999D01*
X229900001Y-47250000D01*
X230719670Y-47250000D01*
X230699925Y-47269745D01*
X230650556Y-47355255D01*
X230625000Y-47450630D01*
X230625000Y-47549370D01*
X230650556Y-47644745D01*
X230699925Y-47730255D01*
X230719670Y-47750000D01*
X229900001Y-47750000D01*
X229900000Y-47750001D01*
X229900000Y-47861581D01*
X229927085Y-48032583D01*
X229927085Y-48032584D01*
X229980586Y-48197245D01*
X229980592Y-48197258D01*
X230059191Y-48351516D01*
X230059195Y-48351523D01*
X230160968Y-48491603D01*
X230283396Y-48614031D01*
X230423476Y-48715804D01*
X230423483Y-48715808D01*
X230577741Y-48794407D01*
X230577751Y-48794411D01*
X230742415Y-48847914D01*
X230750000Y-48849115D01*
X230750000Y-47780330D01*
X230769745Y-47800075D01*
X230855255Y-47849444D01*
X230950630Y-47875000D01*
X231049370Y-47875000D01*
X231144745Y-47849444D01*
X231230255Y-47800075D01*
X231250000Y-47780330D01*
X231250000Y-48849114D01*
X231257584Y-48847914D01*
X231422248Y-48794411D01*
X231422258Y-48794407D01*
X231576516Y-48715808D01*
X231576523Y-48715804D01*
X231716602Y-48614031D01*
X231721048Y-48609586D01*
X231801825Y-48555602D01*
X231897111Y-48536640D01*
X231992401Y-48555586D01*
X232073187Y-48609555D01*
X232181344Y-48717712D01*
X232330666Y-48809814D01*
X232330669Y-48809815D01*
X232330667Y-48809815D01*
X232449265Y-48849114D01*
X232497203Y-48864999D01*
X232599991Y-48875500D01*
X233400008Y-48875499D01*
X233502797Y-48864999D01*
X233669334Y-48809814D01*
X233818656Y-48717712D01*
X233942712Y-48593656D01*
X234034814Y-48444334D01*
X234089999Y-48277797D01*
X234100500Y-48175009D01*
X234100499Y-47564005D01*
X234119453Y-47468718D01*
X234173429Y-47387937D01*
X234173431Y-47387935D01*
X234237938Y-47323429D01*
X234318720Y-47269453D01*
X234414006Y-47250500D01*
X238221151Y-47250500D01*
X238316439Y-47269454D01*
X238397221Y-47323430D01*
X238451197Y-47404212D01*
X238457512Y-47421176D01*
X238465185Y-47444333D01*
X238480226Y-47468718D01*
X238557288Y-47593656D01*
X238676572Y-47712940D01*
X238730546Y-47793719D01*
X238749500Y-47889007D01*
X238749500Y-51573920D01*
X238778341Y-51718911D01*
X238778342Y-51718913D01*
X238834916Y-51855495D01*
X238867813Y-51904729D01*
X238917048Y-51978416D01*
X241917049Y-54978416D01*
X241917048Y-54978416D01*
X241995921Y-55057288D01*
X242021584Y-55082951D01*
X242144505Y-55165084D01*
X242183757Y-55181343D01*
X242183759Y-55181344D01*
X242281088Y-55221659D01*
X242281091Y-55221660D01*
X242397237Y-55244763D01*
X242397245Y-55244763D01*
X242426080Y-55250499D01*
X242426081Y-55250500D01*
X242426082Y-55250500D01*
X242426083Y-55250500D01*
X242573918Y-55250500D01*
X243309466Y-55250500D01*
X243404754Y-55269454D01*
X243485536Y-55323430D01*
X243499658Y-55338843D01*
X243499949Y-55339134D01*
X243499953Y-55339139D01*
X243660861Y-55500047D01*
X243755534Y-55566337D01*
X243822716Y-55636516D01*
X243857929Y-55727065D01*
X243855810Y-55824197D01*
X243816682Y-55913125D01*
X243755534Y-55974273D01*
X243661186Y-56040336D01*
X243500335Y-56201187D01*
X243369866Y-56387516D01*
X243273732Y-56593676D01*
X243221128Y-56789999D01*
X243221128Y-56790000D01*
X244066988Y-56790000D01*
X244034075Y-56847007D01*
X244000000Y-56974174D01*
X244000000Y-57105826D01*
X244034075Y-57232993D01*
X244066988Y-57290000D01*
X243221128Y-57290000D01*
X243273732Y-57486323D01*
X243369866Y-57692483D01*
X243500335Y-57878812D01*
X243661187Y-58039664D01*
X243755532Y-58105725D01*
X243822716Y-58175906D01*
X243857929Y-58266455D01*
X243855810Y-58363587D01*
X243816681Y-58452514D01*
X243755533Y-58513663D01*
X243660863Y-58579951D01*
X243499949Y-58740865D01*
X243369436Y-58927258D01*
X243369428Y-58927272D01*
X243273262Y-59133500D01*
X243273261Y-59133503D01*
X243214365Y-59353305D01*
X243214363Y-59353320D01*
X243194532Y-59579994D01*
X243194532Y-59580005D01*
X243214363Y-59806679D01*
X243214365Y-59806694D01*
X243273261Y-60026496D01*
X243273262Y-60026499D01*
X243369428Y-60232727D01*
X243369436Y-60232741D01*
X243499949Y-60419134D01*
X243499953Y-60419139D01*
X243660861Y-60580047D01*
X243660864Y-60580049D01*
X243660865Y-60580050D01*
X243755096Y-60646031D01*
X243822280Y-60716212D01*
X243857493Y-60806761D01*
X243855374Y-60903893D01*
X243816245Y-60992820D01*
X243755096Y-61053969D01*
X243660865Y-61119949D01*
X243499949Y-61280865D01*
X243369436Y-61467258D01*
X243369428Y-61467272D01*
X243273262Y-61673500D01*
X243273261Y-61673503D01*
X243214365Y-61893305D01*
X243214363Y-61893320D01*
X243194532Y-62119994D01*
X243194532Y-62120005D01*
X243214363Y-62346679D01*
X243214365Y-62346694D01*
X243273261Y-62566496D01*
X243273262Y-62566499D01*
X243369428Y-62772727D01*
X243369436Y-62772741D01*
X243476806Y-62926082D01*
X243499953Y-62959139D01*
X243660861Y-63120047D01*
X243660864Y-63120049D01*
X243660865Y-63120050D01*
X243755096Y-63186031D01*
X243822280Y-63256212D01*
X243857493Y-63346761D01*
X243855374Y-63443893D01*
X243816245Y-63532820D01*
X243755096Y-63593969D01*
X243660865Y-63659949D01*
X243499949Y-63820865D01*
X243369436Y-64007258D01*
X243369428Y-64007272D01*
X243273262Y-64213500D01*
X243273261Y-64213503D01*
X243214365Y-64433305D01*
X243214363Y-64433320D01*
X243194532Y-64659994D01*
X243194532Y-64660005D01*
X243214363Y-64886679D01*
X243214365Y-64886694D01*
X243273261Y-65106496D01*
X243273262Y-65106499D01*
X243369428Y-65312727D01*
X243369436Y-65312741D01*
X243499949Y-65499134D01*
X243499953Y-65499139D01*
X243660861Y-65660047D01*
X243660864Y-65660049D01*
X243660865Y-65660050D01*
X243755096Y-65726031D01*
X243822280Y-65796212D01*
X243857493Y-65886761D01*
X243855374Y-65983893D01*
X243816245Y-66072820D01*
X243755096Y-66133969D01*
X243660865Y-66199949D01*
X243499949Y-66360865D01*
X243369436Y-66547258D01*
X243369428Y-66547272D01*
X243273262Y-66753500D01*
X243273261Y-66753503D01*
X243214365Y-66973305D01*
X243214363Y-66973320D01*
X243194532Y-67199994D01*
X243194532Y-67200005D01*
X243214363Y-67426679D01*
X243214365Y-67426694D01*
X243273261Y-67646496D01*
X243273262Y-67646499D01*
X243369428Y-67852727D01*
X243369436Y-67852741D01*
X243499949Y-68039134D01*
X243499953Y-68039139D01*
X243660861Y-68200047D01*
X243660864Y-68200049D01*
X243660865Y-68200050D01*
X243755096Y-68266031D01*
X243822280Y-68336212D01*
X243857493Y-68426761D01*
X243855374Y-68523893D01*
X243816245Y-68612820D01*
X243755096Y-68673969D01*
X243660865Y-68739949D01*
X243499949Y-68900865D01*
X243369436Y-69087258D01*
X243369428Y-69087272D01*
X243273262Y-69293500D01*
X243273261Y-69293503D01*
X243214365Y-69513305D01*
X243214363Y-69513320D01*
X243194532Y-69739994D01*
X243194532Y-69740005D01*
X243214363Y-69966679D01*
X243214365Y-69966694D01*
X243273261Y-70186496D01*
X243273262Y-70186499D01*
X243369428Y-70392727D01*
X243369436Y-70392741D01*
X243499949Y-70579134D01*
X243499953Y-70579139D01*
X243660861Y-70740047D01*
X243660864Y-70740049D01*
X243660865Y-70740050D01*
X243755096Y-70806031D01*
X243822280Y-70876212D01*
X243857493Y-70966761D01*
X243855374Y-71063893D01*
X243816245Y-71152820D01*
X243755096Y-71213969D01*
X243660865Y-71279949D01*
X243499949Y-71440865D01*
X243369436Y-71627258D01*
X243369428Y-71627272D01*
X243273262Y-71833500D01*
X243273261Y-71833503D01*
X243214365Y-72053305D01*
X243214363Y-72053320D01*
X243194532Y-72279994D01*
X243194532Y-72280005D01*
X243214363Y-72506679D01*
X243214365Y-72506694D01*
X243273261Y-72726496D01*
X243273262Y-72726499D01*
X243369428Y-72932727D01*
X243369436Y-72932741D01*
X243499949Y-73119134D01*
X243499953Y-73119139D01*
X243660861Y-73280047D01*
X243660864Y-73280049D01*
X243660865Y-73280050D01*
X243755096Y-73346031D01*
X243822280Y-73416212D01*
X243857493Y-73506761D01*
X243855374Y-73603893D01*
X243816245Y-73692820D01*
X243755096Y-73753969D01*
X243660865Y-73819949D01*
X243499949Y-73980865D01*
X243369436Y-74167258D01*
X243369428Y-74167272D01*
X243273262Y-74373500D01*
X243273261Y-74373503D01*
X243214365Y-74593305D01*
X243214363Y-74593320D01*
X243194532Y-74819994D01*
X243194532Y-74820005D01*
X243214363Y-75046679D01*
X243214365Y-75046694D01*
X243273261Y-75266496D01*
X243273262Y-75266499D01*
X243369428Y-75472727D01*
X243369436Y-75472741D01*
X243493943Y-75650556D01*
X243499953Y-75659139D01*
X243660861Y-75820047D01*
X243660864Y-75820049D01*
X243660865Y-75820050D01*
X243755096Y-75886031D01*
X243822280Y-75956212D01*
X243857493Y-76046761D01*
X243855374Y-76143893D01*
X243816245Y-76232820D01*
X243755096Y-76293969D01*
X243660865Y-76359949D01*
X243499949Y-76520865D01*
X243369436Y-76707258D01*
X243369428Y-76707272D01*
X243273262Y-76913500D01*
X243273261Y-76913503D01*
X243214365Y-77133305D01*
X243214363Y-77133320D01*
X243194532Y-77359994D01*
X243194532Y-77360005D01*
X243214363Y-77586679D01*
X243214365Y-77586694D01*
X243273261Y-77806496D01*
X243273262Y-77806499D01*
X243369428Y-78012727D01*
X243369436Y-78012741D01*
X243499949Y-78199134D01*
X243499953Y-78199139D01*
X243660861Y-78360047D01*
X243660864Y-78360049D01*
X243660865Y-78360050D01*
X243755096Y-78426031D01*
X243822280Y-78496212D01*
X243857493Y-78586761D01*
X243855374Y-78683893D01*
X243816245Y-78772820D01*
X243755096Y-78833969D01*
X243660865Y-78899949D01*
X243499949Y-79060865D01*
X243369436Y-79247258D01*
X243369428Y-79247272D01*
X243273262Y-79453500D01*
X243273261Y-79453503D01*
X243214365Y-79673305D01*
X243214363Y-79673320D01*
X243194532Y-79899994D01*
X243194532Y-79899996D01*
X243194532Y-79900000D01*
X243204050Y-80008795D01*
X243193472Y-80105372D01*
X243146741Y-80190550D01*
X243132067Y-80206564D01*
X242927048Y-80411583D01*
X242882393Y-80478416D01*
X242844916Y-80534504D01*
X242788341Y-80671088D01*
X242759500Y-80816079D01*
X242759500Y-80963920D01*
X242788341Y-81108911D01*
X242844913Y-81245489D01*
X242844914Y-81245491D01*
X242844916Y-81245495D01*
X242868699Y-81281089D01*
X242927048Y-81368416D01*
X243031584Y-81472952D01*
X243104369Y-81521584D01*
X243154505Y-81555084D01*
X243176015Y-81563993D01*
X243185071Y-81567745D01*
X243265852Y-81621722D01*
X243319828Y-81702503D01*
X243338782Y-81797792D01*
X243319828Y-81893080D01*
X243315453Y-81903022D01*
X243273261Y-81993503D01*
X243214365Y-82213305D01*
X243214363Y-82213320D01*
X243194532Y-82439994D01*
X243194532Y-82440005D01*
X243214363Y-82666679D01*
X243214365Y-82666694D01*
X243273261Y-82886496D01*
X243273262Y-82886499D01*
X243369428Y-83092727D01*
X243369436Y-83092741D01*
X243499949Y-83279134D01*
X243499953Y-83279139D01*
X243660861Y-83440047D01*
X243660864Y-83440049D01*
X243660865Y-83440050D01*
X243755096Y-83506031D01*
X243822280Y-83576212D01*
X243857493Y-83666761D01*
X243855374Y-83763893D01*
X243816245Y-83852820D01*
X243755096Y-83913969D01*
X243660865Y-83979949D01*
X243499949Y-84140865D01*
X243369436Y-84327258D01*
X243369428Y-84327272D01*
X243273262Y-84533500D01*
X243273261Y-84533503D01*
X243214365Y-84753305D01*
X243214363Y-84753320D01*
X243194532Y-84979994D01*
X243194532Y-84980005D01*
X243214363Y-85206679D01*
X243214365Y-85206694D01*
X243273261Y-85426496D01*
X243273262Y-85426499D01*
X243369428Y-85632727D01*
X243369436Y-85632741D01*
X243499949Y-85819134D01*
X243499953Y-85819139D01*
X243660861Y-85980047D01*
X243660864Y-85980049D01*
X243660865Y-85980050D01*
X243755096Y-86046031D01*
X243822280Y-86116212D01*
X243857493Y-86206761D01*
X243855374Y-86303893D01*
X243816245Y-86392820D01*
X243755096Y-86453969D01*
X243660865Y-86519949D01*
X243660861Y-86519952D01*
X243660861Y-86519953D01*
X243499953Y-86680861D01*
X243499952Y-86680863D01*
X243492266Y-86688549D01*
X243491367Y-86687650D01*
X243424448Y-86741362D01*
X243331175Y-86768552D01*
X243309466Y-86769500D01*
X237906079Y-86769500D01*
X237761088Y-86798341D01*
X237761085Y-86798342D01*
X237624509Y-86854913D01*
X237624502Y-86854916D01*
X237583647Y-86882216D01*
X237583646Y-86882216D01*
X237501587Y-86937045D01*
X235417048Y-89021583D01*
X235379650Y-89077555D01*
X235334916Y-89144504D01*
X235278341Y-89281088D01*
X235249500Y-89426079D01*
X235249500Y-95585992D01*
X235230546Y-95681280D01*
X235176570Y-95762062D01*
X233262062Y-97676570D01*
X233181280Y-97730546D01*
X233085992Y-97749500D01*
X229426079Y-97749500D01*
X229281088Y-97778341D01*
X229144507Y-97834915D01*
X229144503Y-97834917D01*
X229021585Y-97917048D01*
X229021583Y-97917049D01*
X228387061Y-98551570D01*
X228306280Y-98605546D01*
X228210992Y-98624500D01*
X227599993Y-98624500D01*
X227497199Y-98635001D01*
X227330667Y-98690185D01*
X227181346Y-98782286D01*
X227181344Y-98782287D01*
X227181344Y-98782288D01*
X227073200Y-98890431D01*
X226992422Y-98944405D01*
X226897134Y-98963359D01*
X226801846Y-98944405D01*
X226721064Y-98890429D01*
X226716603Y-98885968D01*
X226576523Y-98784195D01*
X226576516Y-98784191D01*
X226422258Y-98705592D01*
X226422245Y-98705586D01*
X226257587Y-98652087D01*
X226257579Y-98652085D01*
X226250000Y-98650883D01*
X226250000Y-99719670D01*
X226230255Y-99699925D01*
X226144745Y-99650556D01*
X226049370Y-99625000D01*
X225950630Y-99625000D01*
X225855255Y-99650556D01*
X225769745Y-99699925D01*
X225750000Y-99719670D01*
X225750000Y-98650883D01*
X225749999Y-98650883D01*
X225742420Y-98652085D01*
X225742412Y-98652087D01*
X225577754Y-98705586D01*
X225577741Y-98705592D01*
X225423483Y-98784191D01*
X225423476Y-98784195D01*
X225283393Y-98885970D01*
X225176422Y-98992941D01*
X225095640Y-99046917D01*
X225000352Y-99065871D01*
X224905064Y-99046917D01*
X224824283Y-98992941D01*
X224823430Y-98992088D01*
X224769454Y-98911306D01*
X224750500Y-98816018D01*
X224750500Y-96914007D01*
X224769454Y-96818719D01*
X224823430Y-96737937D01*
X225237937Y-96323430D01*
X225318719Y-96269454D01*
X225414007Y-96250500D01*
X232073919Y-96250500D01*
X232073919Y-96250499D01*
X232218913Y-96221658D01*
X232305039Y-96185983D01*
X232355491Y-96165086D01*
X232355492Y-96165085D01*
X232355495Y-96165084D01*
X232404729Y-96132186D01*
X232478416Y-96082952D01*
X234082951Y-94478416D01*
X234165084Y-94355495D01*
X234221658Y-94218913D01*
X234250500Y-94073918D01*
X234250500Y-93926083D01*
X234250500Y-93926082D01*
X234250500Y-85782609D01*
X237109087Y-85782609D01*
X237109088Y-85782609D01*
X242200136Y-85782609D01*
X242200137Y-85782609D01*
X242200137Y-59013117D01*
X237109087Y-59013117D01*
X237109087Y-85782609D01*
X234250500Y-85782609D01*
X234250500Y-84426082D01*
X234221658Y-84281087D01*
X234165084Y-84144505D01*
X234123955Y-84082951D01*
X234082952Y-84021584D01*
X231918416Y-81857048D01*
X231918412Y-81857045D01*
X231836354Y-81802216D01*
X231836350Y-81802214D01*
X231795501Y-81774918D01*
X231795490Y-81774913D01*
X231658914Y-81718342D01*
X231658911Y-81718341D01*
X231513920Y-81689500D01*
X231513918Y-81689500D01*
X230450534Y-81689500D01*
X230355246Y-81670546D01*
X230274464Y-81616570D01*
X230260341Y-81601156D01*
X230260049Y-81600864D01*
X230260047Y-81600861D01*
X230099139Y-81439953D01*
X230004902Y-81373968D01*
X229937719Y-81303789D01*
X229902506Y-81213240D01*
X229904625Y-81116108D01*
X229943753Y-81027181D01*
X230004902Y-80966031D01*
X230099139Y-80900047D01*
X230260047Y-80739139D01*
X230390568Y-80552734D01*
X230486739Y-80346496D01*
X230545635Y-80126692D01*
X230565468Y-79900000D01*
X230565468Y-79899996D01*
X230565468Y-79899994D01*
X230545636Y-79673320D01*
X230545635Y-79673308D01*
X230486739Y-79453504D01*
X230390568Y-79247266D01*
X230390565Y-79247262D01*
X230390563Y-79247258D01*
X230260050Y-79060865D01*
X230260049Y-79060864D01*
X230260047Y-79060861D01*
X230099139Y-78899953D01*
X230099133Y-78899949D01*
X230070561Y-78879942D01*
X230004902Y-78833968D01*
X229937719Y-78763789D01*
X229902506Y-78673240D01*
X229904625Y-78576108D01*
X229943753Y-78487181D01*
X230004902Y-78426031D01*
X230099139Y-78360047D01*
X230260047Y-78199139D01*
X230390568Y-78012734D01*
X230486739Y-77806496D01*
X230545635Y-77586692D01*
X230565468Y-77360000D01*
X230565468Y-77359994D01*
X230545636Y-77133320D01*
X230545635Y-77133308D01*
X230486739Y-76913504D01*
X230396995Y-76721048D01*
X230390571Y-76707272D01*
X230390563Y-76707258D01*
X230260050Y-76520865D01*
X230260049Y-76520864D01*
X230260047Y-76520861D01*
X230099139Y-76359953D01*
X230099133Y-76359949D01*
X230027892Y-76310066D01*
X230004902Y-76293968D01*
X229937719Y-76223789D01*
X229902506Y-76133240D01*
X229904625Y-76036108D01*
X229943753Y-75947181D01*
X230004902Y-75886031D01*
X230099139Y-75820047D01*
X230260047Y-75659139D01*
X230390568Y-75472734D01*
X230486739Y-75266496D01*
X230545635Y-75046692D01*
X230558026Y-74905065D01*
X230565468Y-74820005D01*
X230565468Y-74819994D01*
X230545636Y-74593320D01*
X230545635Y-74593308D01*
X230486739Y-74373504D01*
X230390568Y-74167266D01*
X230390565Y-74167262D01*
X230390563Y-74167258D01*
X230260050Y-73980865D01*
X230260049Y-73980864D01*
X230260047Y-73980861D01*
X230099139Y-73819953D01*
X230099133Y-73819949D01*
X230070561Y-73799942D01*
X230004902Y-73753968D01*
X229937719Y-73683789D01*
X229902506Y-73593240D01*
X229904625Y-73496108D01*
X229943753Y-73407181D01*
X230004902Y-73346031D01*
X230099139Y-73280047D01*
X230260047Y-73119139D01*
X230390568Y-72932734D01*
X230486739Y-72726496D01*
X230545635Y-72506692D01*
X230558863Y-72355495D01*
X230565468Y-72280005D01*
X230565468Y-72279994D01*
X230545636Y-72053320D01*
X230545635Y-72053308D01*
X230486739Y-71833504D01*
X230390568Y-71627266D01*
X230390565Y-71627262D01*
X230390563Y-71627258D01*
X230260050Y-71440865D01*
X230260049Y-71440864D01*
X230260047Y-71440861D01*
X230099139Y-71279953D01*
X230099133Y-71279949D01*
X230055647Y-71249500D01*
X230004902Y-71213968D01*
X229937719Y-71143789D01*
X229902506Y-71053240D01*
X229904625Y-70956108D01*
X229943753Y-70867181D01*
X230004902Y-70806031D01*
X230099139Y-70740047D01*
X230260047Y-70579139D01*
X230390568Y-70392734D01*
X230486739Y-70186496D01*
X230545635Y-69966692D01*
X230565468Y-69740000D01*
X230565468Y-69739994D01*
X230545636Y-69513320D01*
X230545635Y-69513308D01*
X230486739Y-69293504D01*
X230390568Y-69087266D01*
X230390565Y-69087262D01*
X230390563Y-69087258D01*
X230260050Y-68900865D01*
X230260049Y-68900864D01*
X230260047Y-68900861D01*
X230099139Y-68739953D01*
X230099133Y-68739949D01*
X230066256Y-68716928D01*
X230004902Y-68673968D01*
X229937719Y-68603789D01*
X229902506Y-68513240D01*
X229904625Y-68416108D01*
X229943753Y-68327181D01*
X230004902Y-68266031D01*
X230099139Y-68200047D01*
X230260047Y-68039139D01*
X230390568Y-67852734D01*
X230486739Y-67646496D01*
X230545635Y-67426692D01*
X230553664Y-67334916D01*
X230565468Y-67200005D01*
X230565468Y-67199994D01*
X230545636Y-66973320D01*
X230545635Y-66973308D01*
X230486739Y-66753504D01*
X230390568Y-66547266D01*
X230390565Y-66547262D01*
X230390563Y-66547258D01*
X230260050Y-66360865D01*
X230260049Y-66360864D01*
X230260047Y-66360861D01*
X230099139Y-66199953D01*
X230099133Y-66199949D01*
X230070561Y-66179942D01*
X230004902Y-66133968D01*
X229937719Y-66063789D01*
X229902506Y-65973240D01*
X229904625Y-65876108D01*
X229943753Y-65787181D01*
X230004902Y-65726031D01*
X230099139Y-65660047D01*
X230260047Y-65499139D01*
X230390568Y-65312734D01*
X230486739Y-65106496D01*
X230545635Y-64886692D01*
X230565468Y-64660000D01*
X230565468Y-64659994D01*
X230545636Y-64433320D01*
X230545635Y-64433308D01*
X230486739Y-64213504D01*
X230390568Y-64007266D01*
X230390565Y-64007262D01*
X230390563Y-64007258D01*
X230260050Y-63820865D01*
X230260049Y-63820864D01*
X230260047Y-63820861D01*
X230099139Y-63659953D01*
X230099135Y-63659950D01*
X230099134Y-63659949D01*
X230004467Y-63593663D01*
X229937283Y-63523482D01*
X229902070Y-63432933D01*
X229904189Y-63335801D01*
X229943318Y-63246874D01*
X230004468Y-63185724D01*
X230098813Y-63119663D01*
X230259664Y-62958812D01*
X230390133Y-62772483D01*
X230486267Y-62566323D01*
X230538872Y-62370000D01*
X229693012Y-62370000D01*
X229725925Y-62312993D01*
X229760000Y-62185826D01*
X229760000Y-62054174D01*
X229725925Y-61927007D01*
X229693012Y-61870000D01*
X230538872Y-61870000D01*
X230538871Y-61869999D01*
X230486267Y-61673676D01*
X230390133Y-61467516D01*
X230259664Y-61281187D01*
X230098814Y-61120337D01*
X230004466Y-61054274D01*
X229937282Y-60984093D01*
X229902070Y-60893543D01*
X229904189Y-60796411D01*
X229943318Y-60707484D01*
X230004465Y-60646337D01*
X230099139Y-60580047D01*
X230260047Y-60419139D01*
X230390568Y-60232734D01*
X230486739Y-60026496D01*
X230545635Y-59806692D01*
X230565468Y-59580000D01*
X230565468Y-59579994D01*
X230545636Y-59353320D01*
X230545635Y-59353308D01*
X230486739Y-59133504D01*
X230420206Y-58990824D01*
X230390571Y-58927272D01*
X230390563Y-58927258D01*
X230260050Y-58740865D01*
X230260049Y-58740864D01*
X230260047Y-58740861D01*
X230099139Y-58579953D01*
X230099133Y-58579949D01*
X230070561Y-58559942D01*
X230004902Y-58513968D01*
X229937719Y-58443789D01*
X229902506Y-58353240D01*
X229904625Y-58256108D01*
X229943753Y-58167181D01*
X230004902Y-58106031D01*
X230099139Y-58040047D01*
X230260047Y-57879139D01*
X230390568Y-57692734D01*
X230486739Y-57486496D01*
X230545635Y-57266692D01*
X230553563Y-57176070D01*
X230565468Y-57040005D01*
X230565468Y-57039994D01*
X230545636Y-56813320D01*
X230545635Y-56813308D01*
X230486739Y-56593504D01*
X230406972Y-56422445D01*
X230390571Y-56387272D01*
X230390563Y-56387258D01*
X230260050Y-56200865D01*
X230260049Y-56200864D01*
X230260047Y-56200861D01*
X230212599Y-56153413D01*
X230158626Y-56072635D01*
X230139672Y-55977347D01*
X230158626Y-55882059D01*
X230212602Y-55801277D01*
X230293384Y-55747301D01*
X230301613Y-55744063D01*
X230302331Y-55743796D01*
X230417546Y-55657546D01*
X230503796Y-55542331D01*
X230554091Y-55407483D01*
X230560500Y-55347873D01*
X230560499Y-53652128D01*
X230554091Y-53592517D01*
X230503796Y-53457669D01*
X230417546Y-53342454D01*
X230302331Y-53256204D01*
X230190155Y-53214365D01*
X230167481Y-53205908D01*
X230107873Y-53199500D01*
X228412134Y-53199500D01*
X228412130Y-53199500D01*
X228412128Y-53199501D01*
X228399314Y-53200878D01*
X228352519Y-53205908D01*
X228352515Y-53205909D01*
X228217670Y-53256203D01*
X228102455Y-53342453D01*
X228102453Y-53342455D01*
X228016204Y-53457669D01*
X227965908Y-53592518D01*
X227959500Y-53652123D01*
X227959500Y-55347865D01*
X227959500Y-55347868D01*
X227959501Y-55347872D01*
X227961567Y-55367093D01*
X227965908Y-55407480D01*
X227965909Y-55407484D01*
X228000433Y-55500047D01*
X228016204Y-55542331D01*
X228102454Y-55657546D01*
X228217669Y-55743796D01*
X228218337Y-55744045D01*
X228219953Y-55745043D01*
X228233298Y-55752330D01*
X228232907Y-55753044D01*
X228300991Y-55795097D01*
X228357820Y-55873898D01*
X228380168Y-55968448D01*
X228364632Y-56064352D01*
X228313577Y-56147011D01*
X228307398Y-56153415D01*
X228259952Y-56200861D01*
X228129436Y-56387258D01*
X228129428Y-56387272D01*
X228033262Y-56593500D01*
X228033261Y-56593503D01*
X227974365Y-56813305D01*
X227974363Y-56813320D01*
X227954532Y-57039994D01*
X227954532Y-57040005D01*
X227974363Y-57266679D01*
X227974365Y-57266694D01*
X228033261Y-57486496D01*
X228033262Y-57486499D01*
X228129428Y-57692727D01*
X228129436Y-57692741D01*
X228244647Y-57857280D01*
X228259953Y-57879139D01*
X228420861Y-58040047D01*
X228420864Y-58040049D01*
X228420865Y-58040050D01*
X228515096Y-58106031D01*
X228582280Y-58176212D01*
X228617493Y-58266761D01*
X228615374Y-58363893D01*
X228576245Y-58452820D01*
X228515096Y-58513969D01*
X228420865Y-58579949D01*
X228259949Y-58740865D01*
X228129436Y-58927258D01*
X228129428Y-58927272D01*
X228033262Y-59133500D01*
X228033261Y-59133503D01*
X227974365Y-59353305D01*
X227974363Y-59353320D01*
X227954532Y-59579994D01*
X227954532Y-59580005D01*
X227974363Y-59806679D01*
X227974365Y-59806694D01*
X228033261Y-60026496D01*
X228033262Y-60026499D01*
X228129428Y-60232727D01*
X228129436Y-60232741D01*
X228259949Y-60419134D01*
X228259953Y-60419139D01*
X228420861Y-60580047D01*
X228515534Y-60646337D01*
X228582716Y-60716516D01*
X228617929Y-60807065D01*
X228615810Y-60904197D01*
X228576682Y-60993125D01*
X228515534Y-61054273D01*
X228421186Y-61120336D01*
X228260335Y-61281187D01*
X228129866Y-61467516D01*
X228033731Y-61673680D01*
X227997705Y-61808129D01*
X227954734Y-61895264D01*
X227881689Y-61959323D01*
X227789690Y-61990552D01*
X227692743Y-61984197D01*
X227605608Y-61941226D01*
X227581120Y-61919752D01*
X226823430Y-61162062D01*
X226769454Y-61081280D01*
X226750500Y-60985992D01*
X226750500Y-55426081D01*
X226750499Y-55426079D01*
X226746800Y-55407484D01*
X226721658Y-55281087D01*
X226665084Y-55144505D01*
X226582951Y-55021584D01*
X226539783Y-54978416D01*
X226478416Y-54917048D01*
X226478416Y-54917049D01*
X224978416Y-53417048D01*
X224866779Y-53342456D01*
X224866777Y-53342454D01*
X224866777Y-53342455D01*
X224866776Y-53342454D01*
X224855495Y-53334916D01*
X224718913Y-53278342D01*
X224718912Y-53278341D01*
X224718908Y-53278340D01*
X224573920Y-53249500D01*
X224573918Y-53249500D01*
X224183981Y-53249500D01*
X224088693Y-53230546D01*
X224007914Y-53176572D01*
X224007808Y-53176466D01*
X224006955Y-53175612D01*
X223953026Y-53094799D01*
X223934128Y-52999500D01*
X223953138Y-52904223D01*
X224007059Y-52823576D01*
X224114029Y-52716606D01*
X224215804Y-52576523D01*
X224215808Y-52576516D01*
X224294407Y-52422258D01*
X224294411Y-52422248D01*
X224347914Y-52257584D01*
X224349115Y-52250000D01*
X223280330Y-52250000D01*
X223300075Y-52230255D01*
X223349444Y-52144745D01*
X223375000Y-52049370D01*
X223375000Y-51950630D01*
X223349444Y-51855255D01*
X223300075Y-51769745D01*
X223280330Y-51750000D01*
X224349115Y-51750000D01*
X224347914Y-51742415D01*
X224294411Y-51577751D01*
X224294407Y-51577741D01*
X224215808Y-51423483D01*
X224215804Y-51423476D01*
X224114031Y-51283396D01*
X224109571Y-51278936D01*
X224055595Y-51198154D01*
X224036641Y-51102866D01*
X224055595Y-51007578D01*
X224109568Y-50926799D01*
X224217712Y-50818656D01*
X224309814Y-50669334D01*
X224364999Y-50502797D01*
X224375500Y-50400009D01*
X224375499Y-49599992D01*
X224364999Y-49497203D01*
X224309814Y-49330666D01*
X224217712Y-49181344D01*
X224093656Y-49057288D01*
X223944334Y-48965186D01*
X223944332Y-48965185D01*
X223944330Y-48965184D01*
X223944332Y-48965184D01*
X223777802Y-48910002D01*
X223777798Y-48910001D01*
X223777797Y-48910001D01*
X223675009Y-48899500D01*
X223675005Y-48899500D01*
X222324993Y-48899500D01*
X222222199Y-48910001D01*
X222055667Y-48965185D01*
X221906343Y-49057288D01*
X221787061Y-49176570D01*
X221706279Y-49230546D01*
X221610992Y-49249500D01*
X217426079Y-49249500D01*
X217281088Y-49278341D01*
X217144507Y-49334915D01*
X217144503Y-49334917D01*
X217021587Y-49417046D01*
X213612062Y-52826570D01*
X213531280Y-52880546D01*
X213435992Y-52899500D01*
X213138389Y-52899500D01*
X213138386Y-52899500D01*
X213138378Y-52899501D01*
X212967301Y-52926597D01*
X212951442Y-52931750D01*
X212854961Y-52943168D01*
X212761454Y-52916795D01*
X212685157Y-52856646D01*
X212637686Y-52771878D01*
X212625500Y-52694936D01*
X212625500Y-52039007D01*
X212644454Y-51943719D01*
X212698430Y-51862937D01*
X219237937Y-45323430D01*
X219318719Y-45269454D01*
X219414007Y-45250500D01*
X238221483Y-45250500D01*
X238316771Y-45269454D01*
G37*
%TD.AperFunction*%
%TA.AperFunction,Conductor*%
G36*
X220911307Y-68769454D02*
G01*
X220992085Y-68823427D01*
X220992265Y-68823607D01*
X220992764Y-68824107D01*
X221046659Y-68904942D01*
X221065518Y-69000249D01*
X221046469Y-69095518D01*
X220992588Y-69176069D01*
X220885586Y-69283071D01*
X220885582Y-69283076D01*
X220783770Y-69423207D01*
X220705126Y-69577556D01*
X220705124Y-69577562D01*
X220651597Y-69742302D01*
X220624501Y-69913378D01*
X220624500Y-69913393D01*
X220624500Y-70086606D01*
X220624501Y-70086621D01*
X220651597Y-70257697D01*
X220705124Y-70422437D01*
X220705126Y-70422443D01*
X220783770Y-70576792D01*
X220885581Y-70716922D01*
X220885583Y-70716924D01*
X220885586Y-70716928D01*
X220992591Y-70823933D01*
X221046565Y-70904712D01*
X221065519Y-71000000D01*
X221046565Y-71095288D01*
X220992591Y-71176066D01*
X220938112Y-71230546D01*
X220885581Y-71283077D01*
X220783770Y-71423207D01*
X220705126Y-71577556D01*
X220705124Y-71577562D01*
X220651597Y-71742302D01*
X220624501Y-71913378D01*
X220624500Y-71913393D01*
X220624500Y-72086606D01*
X220624501Y-72086621D01*
X220651597Y-72257697D01*
X220651598Y-72257701D01*
X220658845Y-72280005D01*
X220705124Y-72422437D01*
X220705126Y-72422443D01*
X220783770Y-72576792D01*
X220885581Y-72716922D01*
X220885582Y-72716923D01*
X220885586Y-72716928D01*
X220992591Y-72823933D01*
X221046565Y-72904712D01*
X221065519Y-73000000D01*
X221046565Y-73095288D01*
X220992591Y-73176066D01*
X220938112Y-73230546D01*
X220885581Y-73283077D01*
X220783770Y-73423207D01*
X220705126Y-73577556D01*
X220705124Y-73577562D01*
X220651597Y-73742302D01*
X220624501Y-73913378D01*
X220624500Y-73913393D01*
X220624500Y-74086606D01*
X220624501Y-74086621D01*
X220651597Y-74257697D01*
X220705124Y-74422437D01*
X220705126Y-74422443D01*
X220783770Y-74576792D01*
X220885581Y-74716922D01*
X220885583Y-74716924D01*
X220885586Y-74716928D01*
X220992944Y-74824286D01*
X221046918Y-74905065D01*
X221065872Y-75000353D01*
X221046918Y-75095641D01*
X220992942Y-75176423D01*
X220885968Y-75283396D01*
X220784195Y-75423476D01*
X220784191Y-75423483D01*
X220705592Y-75577741D01*
X220705588Y-75577751D01*
X220652085Y-75742415D01*
X220650884Y-75750000D01*
X221719670Y-75750000D01*
X221699925Y-75769745D01*
X221650556Y-75855255D01*
X221625000Y-75950630D01*
X221625000Y-76049370D01*
X221650556Y-76144745D01*
X221699925Y-76230255D01*
X221719670Y-76250000D01*
X220650884Y-76250000D01*
X220611841Y-76295712D01*
X220535543Y-76355858D01*
X220442035Y-76382229D01*
X220345554Y-76370808D01*
X220260787Y-76323334D01*
X220246433Y-76310066D01*
X218194064Y-74257697D01*
X215353416Y-71417048D01*
X215243961Y-71343914D01*
X215243954Y-71343907D01*
X215243953Y-71343908D01*
X215230498Y-71334918D01*
X215230499Y-71334918D01*
X215230496Y-71334916D01*
X215230495Y-71334916D01*
X215093913Y-71278342D01*
X215093912Y-71278341D01*
X215093908Y-71278340D01*
X214948920Y-71249500D01*
X214948918Y-71249500D01*
X214683981Y-71249500D01*
X214588693Y-71230546D01*
X214507914Y-71176572D01*
X214491928Y-71160586D01*
X214491924Y-71160583D01*
X214491922Y-71160581D01*
X214351792Y-71058770D01*
X214197443Y-70980126D01*
X214197437Y-70980124D01*
X214077739Y-70941232D01*
X214032701Y-70926598D01*
X214032699Y-70926597D01*
X214032697Y-70926597D01*
X213861621Y-70899501D01*
X213861614Y-70899500D01*
X213861611Y-70899500D01*
X213861607Y-70899500D01*
X213763008Y-70899500D01*
X213667720Y-70880546D01*
X213586938Y-70826570D01*
X213532962Y-70745788D01*
X213514008Y-70650500D01*
X213532962Y-70555212D01*
X213586938Y-70474430D01*
X215237937Y-68823430D01*
X215318719Y-68769454D01*
X215414007Y-68750500D01*
X220816019Y-68750500D01*
X220911307Y-68769454D01*
G37*
%TD.AperFunction*%
%TA.AperFunction,Conductor*%
G36*
X221706280Y-50769454D02*
G01*
X221787062Y-50823430D01*
X221890428Y-50926796D01*
X221944404Y-51007578D01*
X221963358Y-51102866D01*
X221944404Y-51198154D01*
X221890435Y-51278928D01*
X221885970Y-51283393D01*
X221784195Y-51423476D01*
X221784191Y-51423483D01*
X221705592Y-51577741D01*
X221705588Y-51577751D01*
X221652085Y-51742415D01*
X221650884Y-51750000D01*
X222719670Y-51750000D01*
X222699925Y-51769745D01*
X222650556Y-51855255D01*
X222625000Y-51950630D01*
X222625000Y-52049370D01*
X222650556Y-52144745D01*
X222699925Y-52230255D01*
X222719670Y-52250000D01*
X221650885Y-52250000D01*
X221652085Y-52257584D01*
X221705588Y-52422248D01*
X221705592Y-52422258D01*
X221784191Y-52576516D01*
X221784195Y-52576523D01*
X221885968Y-52716603D01*
X221992942Y-52823577D01*
X222046918Y-52904359D01*
X222065872Y-52999647D01*
X222046918Y-53094935D01*
X221992944Y-53175713D01*
X221938112Y-53230546D01*
X221885581Y-53283077D01*
X221783770Y-53423207D01*
X221705126Y-53577556D01*
X221705124Y-53577562D01*
X221651597Y-53742302D01*
X221624501Y-53913378D01*
X221624500Y-53913393D01*
X221624500Y-54086606D01*
X221624501Y-54086621D01*
X221651597Y-54257697D01*
X221705124Y-54422437D01*
X221705126Y-54422443D01*
X221783770Y-54576792D01*
X221885581Y-54716922D01*
X221885583Y-54716924D01*
X221885586Y-54716928D01*
X221992591Y-54823933D01*
X222046565Y-54904712D01*
X222065519Y-55000000D01*
X222046565Y-55095288D01*
X221992591Y-55176066D01*
X221935733Y-55232925D01*
X221885581Y-55283077D01*
X221783770Y-55423207D01*
X221705126Y-55577556D01*
X221705124Y-55577562D01*
X221651597Y-55742302D01*
X221624501Y-55913378D01*
X221624500Y-55913393D01*
X221624500Y-56086606D01*
X221624501Y-56086621D01*
X221651597Y-56257697D01*
X221705124Y-56422437D01*
X221705126Y-56422443D01*
X221783770Y-56576792D01*
X221885581Y-56716922D01*
X221885583Y-56716924D01*
X221885586Y-56716928D01*
X221992591Y-56823933D01*
X222046565Y-56904712D01*
X222065519Y-57000000D01*
X222046565Y-57095288D01*
X221992591Y-57176066D01*
X221935665Y-57232993D01*
X221885581Y-57283077D01*
X221783770Y-57423207D01*
X221705126Y-57577556D01*
X221705124Y-57577562D01*
X221651597Y-57742302D01*
X221624501Y-57913378D01*
X221624500Y-57913393D01*
X221624500Y-58086606D01*
X221624501Y-58086621D01*
X221651597Y-58257697D01*
X221651598Y-58257701D01*
X221654535Y-58266739D01*
X221705124Y-58422437D01*
X221705126Y-58422443D01*
X221783770Y-58576792D01*
X221885581Y-58716922D01*
X221885583Y-58716924D01*
X221885586Y-58716928D01*
X221992590Y-58823932D01*
X222046564Y-58904711D01*
X222065518Y-58999999D01*
X222046564Y-59095287D01*
X221992939Y-59175716D01*
X221992440Y-59176217D01*
X221911767Y-59230355D01*
X221816517Y-59249500D01*
X217914007Y-59249500D01*
X217818719Y-59230546D01*
X217737937Y-59176570D01*
X214948429Y-56387062D01*
X214894453Y-56306280D01*
X214875499Y-56210992D01*
X214875499Y-55599993D01*
X214873207Y-55577555D01*
X214864999Y-55497203D01*
X214841431Y-55426081D01*
X214815516Y-55347873D01*
X214809814Y-55330666D01*
X214717712Y-55181344D01*
X214609921Y-55073553D01*
X214555948Y-54992775D01*
X214536994Y-54897487D01*
X214555948Y-54802199D01*
X214609921Y-54721420D01*
X214614414Y-54716928D01*
X214716232Y-54576788D01*
X214794873Y-54422445D01*
X214848402Y-54257701D01*
X214875500Y-54086611D01*
X214875500Y-53913389D01*
X214864238Y-53842284D01*
X214868051Y-53745209D01*
X214908725Y-53656978D01*
X214934096Y-53627270D01*
X217737937Y-50823430D01*
X217818719Y-50769454D01*
X217914007Y-50750500D01*
X221610992Y-50750500D01*
X221706280Y-50769454D01*
G37*
%TD.AperFunction*%
%TD*%
M02*
