%TF.GenerationSoftware,KiCad,Pcbnew,8.0.6*%
%TF.CreationDate,2024-12-30T21:59:01+07:00*%
%TF.ProjectId,Robot_PCB,526f626f-745f-4504-9342-2e6b69636164,rev?*%
%TF.SameCoordinates,Original*%
%TF.FileFunction,Copper,L2,Bot*%
%TF.FilePolarity,Positive*%
%FSLAX46Y46*%
G04 Gerber Fmt 4.6, Leading zero omitted, Abs format (unit mm)*
G04 Created by KiCad (PCBNEW 8.0.6) date 2024-12-30 21:59:01*
%MOMM*%
%LPD*%
G01*
G04 APERTURE LIST*
G04 Aperture macros list*
%AMRoundRect*
0 Rectangle with rounded corners*
0 $1 Rounding radius*
0 $2 $3 $4 $5 $6 $7 $8 $9 X,Y pos of 4 corners*
0 Add a 4 corners polygon primitive as box body*
4,1,4,$2,$3,$4,$5,$6,$7,$8,$9,$2,$3,0*
0 Add four circle primitives for the rounded corners*
1,1,$1+$1,$2,$3*
1,1,$1+$1,$4,$5*
1,1,$1+$1,$6,$7*
1,1,$1+$1,$8,$9*
0 Add four rect primitives between the rounded corners*
20,1,$1+$1,$2,$3,$4,$5,0*
20,1,$1+$1,$4,$5,$6,$7,0*
20,1,$1+$1,$6,$7,$8,$9,0*
20,1,$1+$1,$8,$9,$2,$3,0*%
G04 Aperture macros list end*
%TA.AperFunction,ComponentPad*%
%ADD10RoundRect,0.250000X0.350000X0.625000X-0.350000X0.625000X-0.350000X-0.625000X0.350000X-0.625000X0*%
%TD*%
%TA.AperFunction,ComponentPad*%
%ADD11O,1.200000X1.750000*%
%TD*%
%TA.AperFunction,ComponentPad*%
%ADD12O,1.750000X1.200000*%
%TD*%
%TA.AperFunction,ComponentPad*%
%ADD13RoundRect,0.250000X0.625000X-0.350000X0.625000X0.350000X-0.625000X0.350000X-0.625000X-0.350000X0*%
%TD*%
%TA.AperFunction,ComponentPad*%
%ADD14RoundRect,0.250000X-0.350000X-0.625000X0.350000X-0.625000X0.350000X0.625000X-0.350000X0.625000X0*%
%TD*%
%TA.AperFunction,ComponentPad*%
%ADD15RoundRect,0.250000X-0.625000X0.350000X-0.625000X-0.350000X0.625000X-0.350000X0.625000X0.350000X0*%
%TD*%
%TA.AperFunction,ComponentPad*%
%ADD16R,1.600000X1.600000*%
%TD*%
%TA.AperFunction,ComponentPad*%
%ADD17O,1.600000X1.600000*%
%TD*%
G04 APERTURE END LIST*
D10*
%TO.P,J8,1,Pin_1*%
%TO.N,12V*%
X233000000Y-47500000D03*
D11*
%TO.P,J8,2,Pin_2*%
%TO.N,GND*%
X231000000Y-47500000D03*
%TD*%
D12*
%TO.P,J7,2,Pin_2*%
%TO.N,R Motor -*%
X213500000Y-72000000D03*
D13*
%TO.P,J7,1,Pin_1*%
%TO.N,R Motor +*%
X213500000Y-74000000D03*
%TD*%
D12*
%TO.P,J3,6,Pin_6*%
%TO.N,R Motor +*%
X222000000Y-68000000D03*
%TO.P,J3,5,Pin_5*%
%TO.N,5V*%
X222000000Y-70000000D03*
%TO.P,J3,4,Pin_4*%
%TO.N,R Encoder B Phase*%
X222000000Y-72000000D03*
%TO.P,J3,3,Pin_3*%
%TO.N,R Encoder A Phase*%
X222000000Y-74000000D03*
%TO.P,J3,2,Pin_2*%
%TO.N,GND*%
X222000000Y-76000000D03*
D13*
%TO.P,J3,1,Pin_1*%
%TO.N,R Motor -*%
X222000000Y-78000000D03*
%TD*%
D12*
%TO.P,J6,2,Pin_2*%
%TO.N,L Motor -*%
X213500000Y-54000000D03*
D13*
%TO.P,J6,1,Pin_1*%
%TO.N,L Motor +*%
X213500000Y-56000000D03*
%TD*%
D11*
%TO.P,J5,3,Pin_3*%
%TO.N,5V*%
X243500000Y-46500000D03*
%TO.P,J5,2,Pin_2*%
%TO.N,GND*%
X241500000Y-46500000D03*
D14*
%TO.P,J5,1,Pin_1*%
%TO.N,12V*%
X239500000Y-46500000D03*
%TD*%
D11*
%TO.P,J4,8,Pin_8*%
%TO.N,IRQ*%
X214000000Y-100000000D03*
%TO.P,J4,7,Pin_7*%
%TO.N,SCK*%
X216000000Y-100000000D03*
%TO.P,J4,6,Pin_6*%
%TO.N,MISO*%
X218000000Y-100000000D03*
%TO.P,J4,5,Pin_5*%
%TO.N,MOSI*%
X220000000Y-100000000D03*
%TO.P,J4,4,Pin_4*%
%TO.N,CNS*%
X222000000Y-100000000D03*
%TO.P,J4,3,Pin_3*%
%TO.N,CE*%
X224000000Y-100000000D03*
%TO.P,J4,2,Pin_2*%
%TO.N,GND*%
X226000000Y-100000000D03*
D10*
%TO.P,J4,1,Pin_1*%
%TO.N,3V3*%
X228000000Y-100000000D03*
%TD*%
D12*
%TO.P,J2,6,Pin_6*%
%TO.N,L Motor +*%
X223000000Y-60000000D03*
%TO.P,J2,5,Pin_5*%
%TO.N,5V*%
X223000000Y-58000000D03*
%TO.P,J2,4,Pin_4*%
%TO.N,L Encoder B Phase*%
X223000000Y-56000000D03*
%TO.P,J2,3,Pin_3*%
%TO.N,L Encoder A Phase*%
X223000000Y-54000000D03*
%TO.P,J2,2,Pin_2*%
%TO.N,GND*%
X223000000Y-52000000D03*
D15*
%TO.P,J2,1,Pin_1*%
%TO.N,L Motor -*%
X223000000Y-50000000D03*
%TD*%
D12*
%TO.P,J1,6,Pin_6*%
%TO.N,IN4*%
X215000000Y-93500000D03*
%TO.P,J1,5,Pin_5*%
%TO.N,IN3*%
X215000000Y-91500000D03*
%TO.P,J1,4,Pin_4*%
%TO.N,IN2*%
X215000000Y-89500000D03*
%TO.P,J1,3,Pin_3*%
%TO.N,IN1*%
X215000000Y-87500000D03*
%TO.P,J1,2,Pin_2*%
%TO.N,ENB*%
X215000000Y-85500000D03*
D15*
%TO.P,J1,1,Pin_1*%
%TO.N,ENA*%
X215000000Y-83500000D03*
%TD*%
D16*
%TO.P,A1,1,D1/TX*%
%TO.N,unconnected-(A1-D1{slash}TX-Pad1)*%
X229260000Y-54500000D03*
D17*
%TO.P,A1,2,D0/RX*%
%TO.N,unconnected-(A1-D0{slash}RX-Pad2)*%
X229260000Y-57040000D03*
%TO.P,A1,3,~{RESET}*%
%TO.N,unconnected-(A1-~{RESET}-Pad3)*%
X229260000Y-59580000D03*
%TO.P,A1,4,GND*%
%TO.N,GND*%
X229260000Y-62120000D03*
%TO.P,A1,5,D2*%
%TO.N,L Encoder A Phase*%
X229260000Y-64660000D03*
%TO.P,A1,6,D3*%
%TO.N,R Encoder A Phase*%
X229260000Y-67200000D03*
%TO.P,A1,7,D4*%
%TO.N,unconnected-(A1-D4-Pad7)*%
X229260000Y-69740000D03*
%TO.P,A1,8,D5*%
%TO.N,ENA*%
X229260000Y-72280000D03*
%TO.P,A1,9,D6*%
%TO.N,ENB*%
X229260000Y-74820000D03*
%TO.P,A1,10,D7*%
%TO.N,IN1*%
X229260000Y-77360000D03*
%TO.P,A1,11,D8*%
%TO.N,IN2*%
X229260000Y-79900000D03*
%TO.P,A1,12,D9*%
%TO.N,CE*%
X229260000Y-82440000D03*
%TO.P,A1,13,D10*%
%TO.N,CNS*%
X229260000Y-84980000D03*
%TO.P,A1,14,D11*%
%TO.N,MOSI*%
X229260000Y-87520000D03*
%TO.P,A1,15,D12*%
%TO.N,MISO*%
X229260000Y-90060000D03*
%TO.P,A1,16,D13*%
%TO.N,SCK*%
X244500000Y-90060000D03*
%TO.P,A1,17,3V3*%
%TO.N,3V3*%
X244500000Y-87520000D03*
%TO.P,A1,18,AREF*%
%TO.N,unconnected-(A1-AREF-Pad18)*%
X244500000Y-84980000D03*
%TO.P,A1,19,A0*%
%TO.N,IN4*%
X244500000Y-82440000D03*
%TO.P,A1,20,A1*%
%TO.N,IN3*%
X244500000Y-79900000D03*
%TO.P,A1,21,A2*%
%TO.N,unconnected-(A1-A2-Pad21)*%
X244500000Y-77360000D03*
%TO.P,A1,22,A3*%
%TO.N,unconnected-(A1-A3-Pad22)*%
X244500000Y-74820000D03*
%TO.P,A1,23,A4*%
%TO.N,unconnected-(A1-A4-Pad23)*%
X244500000Y-72280000D03*
%TO.P,A1,24,A5*%
%TO.N,unconnected-(A1-A5-Pad24)*%
X244500000Y-69740000D03*
%TO.P,A1,25,A6*%
%TO.N,unconnected-(A1-A6-Pad25)*%
X244500000Y-67200000D03*
%TO.P,A1,26,A7*%
%TO.N,unconnected-(A1-A7-Pad26)*%
X244500000Y-64660000D03*
%TO.P,A1,27,+5V*%
%TO.N,unconnected-(A1-+5V-Pad27)*%
X244500000Y-62120000D03*
%TO.P,A1,28,~{RESET}*%
%TO.N,unconnected-(A1-~{RESET}-Pad28)*%
X244500000Y-59580000D03*
%TO.P,A1,29,GND*%
%TO.N,GND*%
X244500000Y-57040000D03*
%TO.P,A1,30,VIN*%
%TO.N,12V*%
X244500000Y-54500000D03*
%TD*%
M02*
