%TF.GenerationSoftware,KiCad,Pcbnew,8.0.6*%
%TF.CreationDate,2024-12-30T21:59:01+07:00*%
%TF.ProjectId,Robot_PCB,526f626f-745f-4504-9342-2e6b69636164,rev?*%
%TF.SameCoordinates,Original*%
%TF.FileFunction,Legend,Top*%
%TF.FilePolarity,Positive*%
%FSLAX46Y46*%
G04 Gerber Fmt 4.6, Leading zero omitted, Abs format (unit mm)*
G04 Created by KiCad (PCBNEW 8.0.6) date 2024-12-30 21:59:01*
%MOMM*%
%LPD*%
G01*
G04 APERTURE LIST*
%ADD10C,0.150000*%
%ADD11C,0.120000*%
G04 APERTURE END LIST*
D10*
X227166666Y-46954819D02*
X227166666Y-47669104D01*
X227166666Y-47669104D02*
X227119047Y-47811961D01*
X227119047Y-47811961D02*
X227023809Y-47907200D01*
X227023809Y-47907200D02*
X226880952Y-47954819D01*
X226880952Y-47954819D02*
X226785714Y-47954819D01*
X227785714Y-47383390D02*
X227690476Y-47335771D01*
X227690476Y-47335771D02*
X227642857Y-47288152D01*
X227642857Y-47288152D02*
X227595238Y-47192914D01*
X227595238Y-47192914D02*
X227595238Y-47145295D01*
X227595238Y-47145295D02*
X227642857Y-47050057D01*
X227642857Y-47050057D02*
X227690476Y-47002438D01*
X227690476Y-47002438D02*
X227785714Y-46954819D01*
X227785714Y-46954819D02*
X227976190Y-46954819D01*
X227976190Y-46954819D02*
X228071428Y-47002438D01*
X228071428Y-47002438D02*
X228119047Y-47050057D01*
X228119047Y-47050057D02*
X228166666Y-47145295D01*
X228166666Y-47145295D02*
X228166666Y-47192914D01*
X228166666Y-47192914D02*
X228119047Y-47288152D01*
X228119047Y-47288152D02*
X228071428Y-47335771D01*
X228071428Y-47335771D02*
X227976190Y-47383390D01*
X227976190Y-47383390D02*
X227785714Y-47383390D01*
X227785714Y-47383390D02*
X227690476Y-47431009D01*
X227690476Y-47431009D02*
X227642857Y-47478628D01*
X227642857Y-47478628D02*
X227595238Y-47573866D01*
X227595238Y-47573866D02*
X227595238Y-47764342D01*
X227595238Y-47764342D02*
X227642857Y-47859580D01*
X227642857Y-47859580D02*
X227690476Y-47907200D01*
X227690476Y-47907200D02*
X227785714Y-47954819D01*
X227785714Y-47954819D02*
X227976190Y-47954819D01*
X227976190Y-47954819D02*
X228071428Y-47907200D01*
X228071428Y-47907200D02*
X228119047Y-47859580D01*
X228119047Y-47859580D02*
X228166666Y-47764342D01*
X228166666Y-47764342D02*
X228166666Y-47573866D01*
X228166666Y-47573866D02*
X228119047Y-47478628D01*
X228119047Y-47478628D02*
X228071428Y-47431009D01*
X228071428Y-47431009D02*
X227976190Y-47383390D01*
X210054819Y-73333333D02*
X210769104Y-73333333D01*
X210769104Y-73333333D02*
X210911961Y-73380952D01*
X210911961Y-73380952D02*
X211007200Y-73476190D01*
X211007200Y-73476190D02*
X211054819Y-73619047D01*
X211054819Y-73619047D02*
X211054819Y-73714285D01*
X210054819Y-72952380D02*
X210054819Y-72285714D01*
X210054819Y-72285714D02*
X211054819Y-72714285D01*
X218554819Y-73333333D02*
X219269104Y-73333333D01*
X219269104Y-73333333D02*
X219411961Y-73380952D01*
X219411961Y-73380952D02*
X219507200Y-73476190D01*
X219507200Y-73476190D02*
X219554819Y-73619047D01*
X219554819Y-73619047D02*
X219554819Y-73714285D01*
X218554819Y-72952380D02*
X218554819Y-72333333D01*
X218554819Y-72333333D02*
X218935771Y-72666666D01*
X218935771Y-72666666D02*
X218935771Y-72523809D01*
X218935771Y-72523809D02*
X218983390Y-72428571D01*
X218983390Y-72428571D02*
X219031009Y-72380952D01*
X219031009Y-72380952D02*
X219126247Y-72333333D01*
X219126247Y-72333333D02*
X219364342Y-72333333D01*
X219364342Y-72333333D02*
X219459580Y-72380952D01*
X219459580Y-72380952D02*
X219507200Y-72428571D01*
X219507200Y-72428571D02*
X219554819Y-72523809D01*
X219554819Y-72523809D02*
X219554819Y-72809523D01*
X219554819Y-72809523D02*
X219507200Y-72904761D01*
X219507200Y-72904761D02*
X219459580Y-72952380D01*
X210054819Y-55333333D02*
X210769104Y-55333333D01*
X210769104Y-55333333D02*
X210911961Y-55380952D01*
X210911961Y-55380952D02*
X211007200Y-55476190D01*
X211007200Y-55476190D02*
X211054819Y-55619047D01*
X211054819Y-55619047D02*
X211054819Y-55714285D01*
X210054819Y-54428571D02*
X210054819Y-54619047D01*
X210054819Y-54619047D02*
X210102438Y-54714285D01*
X210102438Y-54714285D02*
X210150057Y-54761904D01*
X210150057Y-54761904D02*
X210292914Y-54857142D01*
X210292914Y-54857142D02*
X210483390Y-54904761D01*
X210483390Y-54904761D02*
X210864342Y-54904761D01*
X210864342Y-54904761D02*
X210959580Y-54857142D01*
X210959580Y-54857142D02*
X211007200Y-54809523D01*
X211007200Y-54809523D02*
X211054819Y-54714285D01*
X211054819Y-54714285D02*
X211054819Y-54523809D01*
X211054819Y-54523809D02*
X211007200Y-54428571D01*
X211007200Y-54428571D02*
X210959580Y-54380952D01*
X210959580Y-54380952D02*
X210864342Y-54333333D01*
X210864342Y-54333333D02*
X210626247Y-54333333D01*
X210626247Y-54333333D02*
X210531009Y-54380952D01*
X210531009Y-54380952D02*
X210483390Y-54428571D01*
X210483390Y-54428571D02*
X210435771Y-54523809D01*
X210435771Y-54523809D02*
X210435771Y-54714285D01*
X210435771Y-54714285D02*
X210483390Y-54809523D01*
X210483390Y-54809523D02*
X210531009Y-54857142D01*
X210531009Y-54857142D02*
X210626247Y-54904761D01*
X247166666Y-46454819D02*
X247166666Y-47169104D01*
X247166666Y-47169104D02*
X247119047Y-47311961D01*
X247119047Y-47311961D02*
X247023809Y-47407200D01*
X247023809Y-47407200D02*
X246880952Y-47454819D01*
X246880952Y-47454819D02*
X246785714Y-47454819D01*
X248119047Y-46454819D02*
X247642857Y-46454819D01*
X247642857Y-46454819D02*
X247595238Y-46931009D01*
X247595238Y-46931009D02*
X247642857Y-46883390D01*
X247642857Y-46883390D02*
X247738095Y-46835771D01*
X247738095Y-46835771D02*
X247976190Y-46835771D01*
X247976190Y-46835771D02*
X248071428Y-46883390D01*
X248071428Y-46883390D02*
X248119047Y-46931009D01*
X248119047Y-46931009D02*
X248166666Y-47026247D01*
X248166666Y-47026247D02*
X248166666Y-47264342D01*
X248166666Y-47264342D02*
X248119047Y-47359580D01*
X248119047Y-47359580D02*
X248071428Y-47407200D01*
X248071428Y-47407200D02*
X247976190Y-47454819D01*
X247976190Y-47454819D02*
X247738095Y-47454819D01*
X247738095Y-47454819D02*
X247642857Y-47407200D01*
X247642857Y-47407200D02*
X247595238Y-47359580D01*
X231666666Y-99454819D02*
X231666666Y-100169104D01*
X231666666Y-100169104D02*
X231619047Y-100311961D01*
X231619047Y-100311961D02*
X231523809Y-100407200D01*
X231523809Y-100407200D02*
X231380952Y-100454819D01*
X231380952Y-100454819D02*
X231285714Y-100454819D01*
X232571428Y-99788152D02*
X232571428Y-100454819D01*
X232333333Y-99407200D02*
X232095238Y-100121485D01*
X232095238Y-100121485D02*
X232714285Y-100121485D01*
X225354819Y-55333333D02*
X226069104Y-55333333D01*
X226069104Y-55333333D02*
X226211961Y-55380952D01*
X226211961Y-55380952D02*
X226307200Y-55476190D01*
X226307200Y-55476190D02*
X226354819Y-55619047D01*
X226354819Y-55619047D02*
X226354819Y-55714285D01*
X225450057Y-54904761D02*
X225402438Y-54857142D01*
X225402438Y-54857142D02*
X225354819Y-54761904D01*
X225354819Y-54761904D02*
X225354819Y-54523809D01*
X225354819Y-54523809D02*
X225402438Y-54428571D01*
X225402438Y-54428571D02*
X225450057Y-54380952D01*
X225450057Y-54380952D02*
X225545295Y-54333333D01*
X225545295Y-54333333D02*
X225640533Y-54333333D01*
X225640533Y-54333333D02*
X225783390Y-54380952D01*
X225783390Y-54380952D02*
X226354819Y-54952380D01*
X226354819Y-54952380D02*
X226354819Y-54333333D01*
X217354819Y-88833333D02*
X218069104Y-88833333D01*
X218069104Y-88833333D02*
X218211961Y-88880952D01*
X218211961Y-88880952D02*
X218307200Y-88976190D01*
X218307200Y-88976190D02*
X218354819Y-89119047D01*
X218354819Y-89119047D02*
X218354819Y-89214285D01*
X218354819Y-87833333D02*
X218354819Y-88404761D01*
X218354819Y-88119047D02*
X217354819Y-88119047D01*
X217354819Y-88119047D02*
X217497676Y-88214285D01*
X217497676Y-88214285D02*
X217592914Y-88309523D01*
X217592914Y-88309523D02*
X217640533Y-88404761D01*
X225785714Y-51669104D02*
X226261904Y-51669104D01*
X225690476Y-51954819D02*
X226023809Y-50954819D01*
X226023809Y-50954819D02*
X226357142Y-51954819D01*
X227214285Y-51954819D02*
X226642857Y-51954819D01*
X226928571Y-51954819D02*
X226928571Y-50954819D01*
X226928571Y-50954819D02*
X226833333Y-51097676D01*
X226833333Y-51097676D02*
X226738095Y-51192914D01*
X226738095Y-51192914D02*
X226642857Y-51240533D01*
X235618095Y-89514819D02*
X235618095Y-90324342D01*
X235618095Y-90324342D02*
X235665714Y-90419580D01*
X235665714Y-90419580D02*
X235713333Y-90467200D01*
X235713333Y-90467200D02*
X235808571Y-90514819D01*
X235808571Y-90514819D02*
X235999047Y-90514819D01*
X235999047Y-90514819D02*
X236094285Y-90467200D01*
X236094285Y-90467200D02*
X236141904Y-90419580D01*
X236141904Y-90419580D02*
X236189523Y-90324342D01*
X236189523Y-90324342D02*
X236189523Y-89514819D01*
X236618095Y-90467200D02*
X236760952Y-90514819D01*
X236760952Y-90514819D02*
X236999047Y-90514819D01*
X236999047Y-90514819D02*
X237094285Y-90467200D01*
X237094285Y-90467200D02*
X237141904Y-90419580D01*
X237141904Y-90419580D02*
X237189523Y-90324342D01*
X237189523Y-90324342D02*
X237189523Y-90229104D01*
X237189523Y-90229104D02*
X237141904Y-90133866D01*
X237141904Y-90133866D02*
X237094285Y-90086247D01*
X237094285Y-90086247D02*
X236999047Y-90038628D01*
X236999047Y-90038628D02*
X236808571Y-89991009D01*
X236808571Y-89991009D02*
X236713333Y-89943390D01*
X236713333Y-89943390D02*
X236665714Y-89895771D01*
X236665714Y-89895771D02*
X236618095Y-89800533D01*
X236618095Y-89800533D02*
X236618095Y-89705295D01*
X236618095Y-89705295D02*
X236665714Y-89610057D01*
X236665714Y-89610057D02*
X236713333Y-89562438D01*
X236713333Y-89562438D02*
X236808571Y-89514819D01*
X236808571Y-89514819D02*
X237046666Y-89514819D01*
X237046666Y-89514819D02*
X237189523Y-89562438D01*
X237951428Y-89991009D02*
X238094285Y-90038628D01*
X238094285Y-90038628D02*
X238141904Y-90086247D01*
X238141904Y-90086247D02*
X238189523Y-90181485D01*
X238189523Y-90181485D02*
X238189523Y-90324342D01*
X238189523Y-90324342D02*
X238141904Y-90419580D01*
X238141904Y-90419580D02*
X238094285Y-90467200D01*
X238094285Y-90467200D02*
X237999047Y-90514819D01*
X237999047Y-90514819D02*
X237618095Y-90514819D01*
X237618095Y-90514819D02*
X237618095Y-89514819D01*
X237618095Y-89514819D02*
X237951428Y-89514819D01*
X237951428Y-89514819D02*
X238046666Y-89562438D01*
X238046666Y-89562438D02*
X238094285Y-89610057D01*
X238094285Y-89610057D02*
X238141904Y-89705295D01*
X238141904Y-89705295D02*
X238141904Y-89800533D01*
X238141904Y-89800533D02*
X238094285Y-89895771D01*
X238094285Y-89895771D02*
X238046666Y-89943390D01*
X238046666Y-89943390D02*
X237951428Y-89991009D01*
X237951428Y-89991009D02*
X237618095Y-89991009D01*
D11*
%TO.C,J8*%
X235360000Y-49610000D02*
X235360000Y-48360000D01*
X235060000Y-49310000D02*
X235060000Y-44590000D01*
X235060000Y-48000000D02*
X234450000Y-48000000D01*
X235060000Y-46700000D02*
X234450000Y-46700000D01*
X235060000Y-44590000D02*
X228940000Y-44590000D01*
X234450000Y-48700000D02*
X234450000Y-45200000D01*
X234450000Y-45200000D02*
X229550000Y-45200000D01*
X234110000Y-49610000D02*
X235360000Y-49610000D01*
X233600000Y-49510000D02*
X233600000Y-49310000D01*
X233300000Y-49510000D02*
X233600000Y-49510000D01*
X233300000Y-49410000D02*
X233600000Y-49410000D01*
X233300000Y-49310000D02*
X233300000Y-49510000D01*
X232500000Y-49310000D02*
X232500000Y-48700000D01*
X232500000Y-48700000D02*
X234450000Y-48700000D01*
X232100000Y-45700000D02*
X231900000Y-45700000D01*
X232100000Y-45200000D02*
X232100000Y-45700000D01*
X232000000Y-45200000D02*
X232000000Y-45700000D01*
X231900000Y-45700000D02*
X231900000Y-45200000D01*
X231500000Y-48700000D02*
X231500000Y-49310000D01*
X229550000Y-48700000D02*
X231500000Y-48700000D01*
X229550000Y-45200000D02*
X229550000Y-48700000D01*
X228940000Y-49310000D02*
X235060000Y-49310000D01*
X228940000Y-48000000D02*
X229550000Y-48000000D01*
X228940000Y-46700000D02*
X229550000Y-46700000D01*
X228940000Y-44590000D02*
X228940000Y-49310000D01*
%TO.C,J7*%
X216410000Y-69940000D02*
X211690000Y-69940000D01*
X214300000Y-69940000D02*
X214300000Y-70550000D01*
X213000000Y-69940000D02*
X213000000Y-70550000D01*
X211690000Y-69940000D02*
X211690000Y-76060000D01*
X215800000Y-70550000D02*
X212300000Y-70550000D01*
X212300000Y-70550000D02*
X212300000Y-72500000D01*
X212300000Y-72500000D02*
X211690000Y-72500000D01*
X215300000Y-72900000D02*
X215800000Y-72900000D01*
X215800000Y-73000000D02*
X215300000Y-73000000D01*
X215800000Y-73100000D02*
X215300000Y-73100000D01*
X215300000Y-73100000D02*
X215300000Y-72900000D01*
X212300000Y-73500000D02*
X212300000Y-75450000D01*
X211690000Y-73500000D02*
X212300000Y-73500000D01*
X211690000Y-74300000D02*
X211490000Y-74300000D01*
X211590000Y-74300000D02*
X211590000Y-74600000D01*
X211490000Y-74300000D02*
X211490000Y-74600000D01*
X211490000Y-74600000D02*
X211690000Y-74600000D01*
X211390000Y-75110000D02*
X211390000Y-76360000D01*
X215800000Y-75450000D02*
X215800000Y-70550000D01*
X212300000Y-75450000D02*
X215800000Y-75450000D01*
X216410000Y-76060000D02*
X216410000Y-69940000D01*
X214300000Y-76060000D02*
X214300000Y-75450000D01*
X213000000Y-76060000D02*
X213000000Y-75450000D01*
X211690000Y-76060000D02*
X216410000Y-76060000D01*
X211390000Y-76360000D02*
X212640000Y-76360000D01*
%TO.C,J3*%
X224910000Y-65940000D02*
X220190000Y-65940000D01*
X222800000Y-65940000D02*
X222800000Y-66550000D01*
X221500000Y-65940000D02*
X221500000Y-66550000D01*
X220190000Y-65940000D02*
X220190000Y-80060000D01*
X224300000Y-66550000D02*
X220800000Y-66550000D01*
X220800000Y-66550000D02*
X220800000Y-68500000D01*
X220800000Y-68500000D02*
X220190000Y-68500000D01*
X223800000Y-68900000D02*
X224300000Y-68900000D01*
X224300000Y-69000000D02*
X223800000Y-69000000D01*
X224300000Y-69100000D02*
X223800000Y-69100000D01*
X223800000Y-69100000D02*
X223800000Y-68900000D01*
X223800000Y-70900000D02*
X224300000Y-70900000D01*
X224300000Y-71000000D02*
X223800000Y-71000000D01*
X224300000Y-71100000D02*
X223800000Y-71100000D01*
X223800000Y-71100000D02*
X223800000Y-70900000D01*
X223800000Y-72900000D02*
X224300000Y-72900000D01*
X224300000Y-73000000D02*
X223800000Y-73000000D01*
X224300000Y-73100000D02*
X223800000Y-73100000D01*
X223800000Y-73100000D02*
X223800000Y-72900000D01*
X223800000Y-74900000D02*
X224300000Y-74900000D01*
X224300000Y-75000000D02*
X223800000Y-75000000D01*
X224300000Y-75100000D02*
X223800000Y-75100000D01*
X223800000Y-75100000D02*
X223800000Y-74900000D01*
X223800000Y-76900000D02*
X224300000Y-76900000D01*
X224300000Y-77000000D02*
X223800000Y-77000000D01*
X224300000Y-77100000D02*
X223800000Y-77100000D01*
X223800000Y-77100000D02*
X223800000Y-76900000D01*
X220800000Y-77500000D02*
X220800000Y-79450000D01*
X220190000Y-77500000D02*
X220800000Y-77500000D01*
X220190000Y-78300000D02*
X219990000Y-78300000D01*
X220090000Y-78300000D02*
X220090000Y-78600000D01*
X219990000Y-78300000D02*
X219990000Y-78600000D01*
X219990000Y-78600000D02*
X220190000Y-78600000D01*
X219890000Y-79110000D02*
X219890000Y-80360000D01*
X224300000Y-79450000D02*
X224300000Y-66550000D01*
X220800000Y-79450000D02*
X224300000Y-79450000D01*
X224910000Y-80060000D02*
X224910000Y-65940000D01*
X222800000Y-80060000D02*
X222800000Y-79450000D01*
X221500000Y-80060000D02*
X221500000Y-79450000D01*
X220190000Y-80060000D02*
X224910000Y-80060000D01*
X219890000Y-80360000D02*
X221140000Y-80360000D01*
%TO.C,J6*%
X216410000Y-51940000D02*
X211690000Y-51940000D01*
X214300000Y-51940000D02*
X214300000Y-52550000D01*
X213000000Y-51940000D02*
X213000000Y-52550000D01*
X211690000Y-51940000D02*
X211690000Y-58060000D01*
X215800000Y-52550000D02*
X212300000Y-52550000D01*
X212300000Y-52550000D02*
X212300000Y-54500000D01*
X212300000Y-54500000D02*
X211690000Y-54500000D01*
X215300000Y-54900000D02*
X215800000Y-54900000D01*
X215800000Y-55000000D02*
X215300000Y-55000000D01*
X215800000Y-55100000D02*
X215300000Y-55100000D01*
X215300000Y-55100000D02*
X215300000Y-54900000D01*
X212300000Y-55500000D02*
X212300000Y-57450000D01*
X211690000Y-55500000D02*
X212300000Y-55500000D01*
X211690000Y-56300000D02*
X211490000Y-56300000D01*
X211590000Y-56300000D02*
X211590000Y-56600000D01*
X211490000Y-56300000D02*
X211490000Y-56600000D01*
X211490000Y-56600000D02*
X211690000Y-56600000D01*
X211390000Y-57110000D02*
X211390000Y-58360000D01*
X215800000Y-57450000D02*
X215800000Y-52550000D01*
X212300000Y-57450000D02*
X215800000Y-57450000D01*
X216410000Y-58060000D02*
X216410000Y-51940000D01*
X214300000Y-58060000D02*
X214300000Y-57450000D01*
X213000000Y-58060000D02*
X213000000Y-57450000D01*
X211690000Y-58060000D02*
X216410000Y-58060000D01*
X211390000Y-58360000D02*
X212640000Y-58360000D01*
%TO.C,J5*%
X245560000Y-49410000D02*
X245560000Y-44690000D01*
X245560000Y-47300000D02*
X244950000Y-47300000D01*
X245560000Y-46000000D02*
X244950000Y-46000000D01*
X245560000Y-44690000D02*
X237440000Y-44690000D01*
X244950000Y-48800000D02*
X244950000Y-45300000D01*
X244950000Y-45300000D02*
X243000000Y-45300000D01*
X243000000Y-45300000D02*
X243000000Y-44690000D01*
X242600000Y-48300000D02*
X242600000Y-48800000D01*
X242500000Y-48800000D02*
X242500000Y-48300000D01*
X242400000Y-48800000D02*
X242400000Y-48300000D01*
X242400000Y-48300000D02*
X242600000Y-48300000D01*
X240600000Y-48300000D02*
X240600000Y-48800000D01*
X240500000Y-48800000D02*
X240500000Y-48300000D01*
X240400000Y-48800000D02*
X240400000Y-48300000D01*
X240400000Y-48300000D02*
X240600000Y-48300000D01*
X240000000Y-45300000D02*
X238050000Y-45300000D01*
X240000000Y-44690000D02*
X240000000Y-45300000D01*
X239200000Y-44690000D02*
X239200000Y-44490000D01*
X239200000Y-44590000D02*
X238900000Y-44590000D01*
X239200000Y-44490000D02*
X238900000Y-44490000D01*
X238900000Y-44490000D02*
X238900000Y-44690000D01*
X238390000Y-44390000D02*
X237140000Y-44390000D01*
X238050000Y-48800000D02*
X244950000Y-48800000D01*
X238050000Y-45300000D02*
X238050000Y-48800000D01*
X237440000Y-49410000D02*
X245560000Y-49410000D01*
X237440000Y-47300000D02*
X238050000Y-47300000D01*
X237440000Y-46000000D02*
X238050000Y-46000000D01*
X237440000Y-44690000D02*
X237440000Y-49410000D01*
X237140000Y-44390000D02*
X237140000Y-45640000D01*
%TO.C,J4*%
X211940000Y-97090000D02*
X211940000Y-101810000D01*
X211940000Y-99200000D02*
X212550000Y-99200000D01*
X211940000Y-100500000D02*
X212550000Y-100500000D01*
X211940000Y-101810000D02*
X230060000Y-101810000D01*
X212550000Y-97700000D02*
X212550000Y-101200000D01*
X212550000Y-101200000D02*
X214500000Y-101200000D01*
X214500000Y-101200000D02*
X214500000Y-101810000D01*
X214900000Y-98200000D02*
X214900000Y-97700000D01*
X215000000Y-97700000D02*
X215000000Y-98200000D01*
X215100000Y-97700000D02*
X215100000Y-98200000D01*
X215100000Y-98200000D02*
X214900000Y-98200000D01*
X216900000Y-98200000D02*
X216900000Y-97700000D01*
X217000000Y-97700000D02*
X217000000Y-98200000D01*
X217100000Y-97700000D02*
X217100000Y-98200000D01*
X217100000Y-98200000D02*
X216900000Y-98200000D01*
X218900000Y-98200000D02*
X218900000Y-97700000D01*
X219000000Y-97700000D02*
X219000000Y-98200000D01*
X219100000Y-97700000D02*
X219100000Y-98200000D01*
X219100000Y-98200000D02*
X218900000Y-98200000D01*
X220900000Y-98200000D02*
X220900000Y-97700000D01*
X221000000Y-97700000D02*
X221000000Y-98200000D01*
X221100000Y-97700000D02*
X221100000Y-98200000D01*
X221100000Y-98200000D02*
X220900000Y-98200000D01*
X222900000Y-98200000D02*
X222900000Y-97700000D01*
X223000000Y-97700000D02*
X223000000Y-98200000D01*
X223100000Y-97700000D02*
X223100000Y-98200000D01*
X223100000Y-98200000D02*
X222900000Y-98200000D01*
X224900000Y-98200000D02*
X224900000Y-97700000D01*
X225000000Y-97700000D02*
X225000000Y-98200000D01*
X225100000Y-97700000D02*
X225100000Y-98200000D01*
X225100000Y-98200000D02*
X224900000Y-98200000D01*
X226900000Y-98200000D02*
X226900000Y-97700000D01*
X227000000Y-97700000D02*
X227000000Y-98200000D01*
X227100000Y-97700000D02*
X227100000Y-98200000D01*
X227100000Y-98200000D02*
X226900000Y-98200000D01*
X227500000Y-101200000D02*
X229450000Y-101200000D01*
X227500000Y-101810000D02*
X227500000Y-101200000D01*
X228300000Y-101810000D02*
X228300000Y-102010000D01*
X228300000Y-101910000D02*
X228600000Y-101910000D01*
X228300000Y-102010000D02*
X228600000Y-102010000D01*
X228600000Y-102010000D02*
X228600000Y-101810000D01*
X229110000Y-102110000D02*
X230360000Y-102110000D01*
X229450000Y-97700000D02*
X212550000Y-97700000D01*
X229450000Y-101200000D02*
X229450000Y-97700000D01*
X230060000Y-97090000D02*
X211940000Y-97090000D01*
X230060000Y-99200000D02*
X229450000Y-99200000D01*
X230060000Y-100500000D02*
X229450000Y-100500000D01*
X230060000Y-101810000D02*
X230060000Y-97090000D01*
X230360000Y-102110000D02*
X230360000Y-100860000D01*
%TO.C,J2*%
X220090000Y-62060000D02*
X224810000Y-62060000D01*
X222200000Y-62060000D02*
X222200000Y-61450000D01*
X223500000Y-62060000D02*
X223500000Y-61450000D01*
X224810000Y-62060000D02*
X224810000Y-47940000D01*
X220700000Y-61450000D02*
X224200000Y-61450000D01*
X224200000Y-61450000D02*
X224200000Y-59500000D01*
X224200000Y-59500000D02*
X224810000Y-59500000D01*
X221200000Y-59100000D02*
X220700000Y-59100000D01*
X220700000Y-59000000D02*
X221200000Y-59000000D01*
X220700000Y-58900000D02*
X221200000Y-58900000D01*
X221200000Y-58900000D02*
X221200000Y-59100000D01*
X221200000Y-57100000D02*
X220700000Y-57100000D01*
X220700000Y-57000000D02*
X221200000Y-57000000D01*
X220700000Y-56900000D02*
X221200000Y-56900000D01*
X221200000Y-56900000D02*
X221200000Y-57100000D01*
X221200000Y-55100000D02*
X220700000Y-55100000D01*
X220700000Y-55000000D02*
X221200000Y-55000000D01*
X220700000Y-54900000D02*
X221200000Y-54900000D01*
X221200000Y-54900000D02*
X221200000Y-55100000D01*
X221200000Y-53100000D02*
X220700000Y-53100000D01*
X220700000Y-53000000D02*
X221200000Y-53000000D01*
X220700000Y-52900000D02*
X221200000Y-52900000D01*
X221200000Y-52900000D02*
X221200000Y-53100000D01*
X221200000Y-51100000D02*
X220700000Y-51100000D01*
X220700000Y-51000000D02*
X221200000Y-51000000D01*
X220700000Y-50900000D02*
X221200000Y-50900000D01*
X221200000Y-50900000D02*
X221200000Y-51100000D01*
X224200000Y-50500000D02*
X224200000Y-48550000D01*
X224810000Y-50500000D02*
X224200000Y-50500000D01*
X224810000Y-49700000D02*
X225010000Y-49700000D01*
X224910000Y-49700000D02*
X224910000Y-49400000D01*
X225010000Y-49700000D02*
X225010000Y-49400000D01*
X225010000Y-49400000D02*
X224810000Y-49400000D01*
X225110000Y-48890000D02*
X225110000Y-47640000D01*
X220700000Y-48550000D02*
X220700000Y-61450000D01*
X224200000Y-48550000D02*
X220700000Y-48550000D01*
X220090000Y-47940000D02*
X220090000Y-62060000D01*
X222200000Y-47940000D02*
X222200000Y-48550000D01*
X223500000Y-47940000D02*
X223500000Y-48550000D01*
X224810000Y-47940000D02*
X220090000Y-47940000D01*
X225110000Y-47640000D02*
X223860000Y-47640000D01*
%TO.C,J1*%
X212090000Y-95560000D02*
X216810000Y-95560000D01*
X214200000Y-95560000D02*
X214200000Y-94950000D01*
X215500000Y-95560000D02*
X215500000Y-94950000D01*
X216810000Y-95560000D02*
X216810000Y-81440000D01*
X212700000Y-94950000D02*
X216200000Y-94950000D01*
X216200000Y-94950000D02*
X216200000Y-93000000D01*
X216200000Y-93000000D02*
X216810000Y-93000000D01*
X213200000Y-92600000D02*
X212700000Y-92600000D01*
X212700000Y-92500000D02*
X213200000Y-92500000D01*
X212700000Y-92400000D02*
X213200000Y-92400000D01*
X213200000Y-92400000D02*
X213200000Y-92600000D01*
X213200000Y-90600000D02*
X212700000Y-90600000D01*
X212700000Y-90500000D02*
X213200000Y-90500000D01*
X212700000Y-90400000D02*
X213200000Y-90400000D01*
X213200000Y-90400000D02*
X213200000Y-90600000D01*
X213200000Y-88600000D02*
X212700000Y-88600000D01*
X212700000Y-88500000D02*
X213200000Y-88500000D01*
X212700000Y-88400000D02*
X213200000Y-88400000D01*
X213200000Y-88400000D02*
X213200000Y-88600000D01*
X213200000Y-86600000D02*
X212700000Y-86600000D01*
X212700000Y-86500000D02*
X213200000Y-86500000D01*
X212700000Y-86400000D02*
X213200000Y-86400000D01*
X213200000Y-86400000D02*
X213200000Y-86600000D01*
X213200000Y-84600000D02*
X212700000Y-84600000D01*
X212700000Y-84500000D02*
X213200000Y-84500000D01*
X212700000Y-84400000D02*
X213200000Y-84400000D01*
X213200000Y-84400000D02*
X213200000Y-84600000D01*
X216200000Y-84000000D02*
X216200000Y-82050000D01*
X216810000Y-84000000D02*
X216200000Y-84000000D01*
X216810000Y-83200000D02*
X217010000Y-83200000D01*
X216910000Y-83200000D02*
X216910000Y-82900000D01*
X217010000Y-83200000D02*
X217010000Y-82900000D01*
X217010000Y-82900000D02*
X216810000Y-82900000D01*
X217110000Y-82390000D02*
X217110000Y-81140000D01*
X212700000Y-82050000D02*
X212700000Y-94950000D01*
X216200000Y-82050000D02*
X212700000Y-82050000D01*
X212090000Y-81440000D02*
X212090000Y-95560000D01*
X214200000Y-81440000D02*
X214200000Y-82050000D01*
X215500000Y-81440000D02*
X215500000Y-82050000D01*
X216810000Y-81440000D02*
X212090000Y-81440000D01*
X217110000Y-81140000D02*
X215860000Y-81140000D01*
%TO.C,A1*%
X227860000Y-50560000D02*
X227860000Y-53230000D01*
X227860000Y-55770000D02*
X227860000Y-94000000D01*
X227860000Y-94000000D02*
X232940000Y-94000000D01*
X230530000Y-53230000D02*
X227860000Y-53230000D01*
X230530000Y-55770000D02*
X227860000Y-55770000D01*
X230530000Y-55770000D02*
X230530000Y-53230000D01*
X230530000Y-55770000D02*
X230530000Y-91330000D01*
X230530000Y-91330000D02*
X227860000Y-91330000D01*
X232940000Y-86120000D02*
X240820000Y-86120000D01*
X232940000Y-96540000D02*
X232940000Y-86120000D01*
X240820000Y-86120000D02*
X240820000Y-96540000D01*
X240820000Y-96540000D02*
X232940000Y-96540000D01*
X243230000Y-53230000D02*
X243230000Y-91330000D01*
X243230000Y-53230000D02*
X245900000Y-53230000D01*
X243230000Y-91330000D02*
X245900000Y-91330000D01*
X245900000Y-50560000D02*
X227860000Y-50560000D01*
X245900000Y-94000000D02*
X240820000Y-94000000D01*
X245900000Y-94000000D02*
X245900000Y-50560000D01*
%TD*%
M02*
